<svg width="250" height="250" viewBox="0 0 250 250" fill="none" xmlns="http://www.w3.org/2000/svg">
<path d="M30.9507 0.774841H30.4011V75.255H30.9507V0.774841Z" fill="#C7C7C7"/>
<path d="M56.5376 100.188L54.4603 104.76H6.88602L4.81422 100.188L25.065 86.1689H36.2868L56.5376 100.188Z" fill="#EBEBEB"/>
<path d="M37.6937 72.6611L36.2868 86.169H25.0651L23.6582 72.6611H37.6937Z" fill="#DBDBDB"/>
<path d="M56.5376 100.188L54.4548 104.76H6.88602L4.80873 100.188H56.5376Z" fill="#DBDBDB"/>
<path d="M86.4824 0.774841H85.9329V60.5051H86.4824V0.774841Z" fill="#C7C7C7"/>
<path d="M112.069 85.4326L109.992 90.0103H62.4178L60.346 85.4326L80.5968 71.4136H91.8186L112.069 85.4326Z" fill="#EBEBEB"/>
<path d="M93.2253 57.9113L91.8185 71.4137H80.5968L79.1899 57.9113H93.2253Z" fill="#DBDBDB"/>
<path d="M112.069 85.4381L109.987 90.0103H62.4178L60.3405 85.4381H112.069Z" fill="#DBDBDB"/>
<path d="M14.2665 123.511L8.84243 132.254L11.5352 133.903C11.9126 134.148 12.2149 134.493 12.4089 134.899C12.6028 135.306 12.6808 135.757 12.6343 136.205C12.5902 136.704 12.5737 137.205 12.5848 137.706C12.6002 138.161 12.4893 138.612 12.2643 139.009C12.0393 139.406 11.709 139.733 11.3099 139.953L8.56216 141.442L13.4421 150.532L16.1899 149.043C16.5808 148.833 17.0219 148.735 17.4649 148.759C17.9078 148.783 18.3356 148.929 18.7013 149.18C19.1501 149.493 19.6162 149.782 20.0972 150.043C20.4879 150.258 20.811 150.577 21.0303 150.966C21.2497 151.354 21.3566 151.795 21.3391 152.241L21.2402 155.39L31.5277 155.709L31.6212 152.549C31.6356 152.102 31.7738 151.669 32.0203 151.296C32.2667 150.923 32.6118 150.627 33.017 150.439C33.2588 150.323 33.4951 150.202 33.7314 150.076C33.9677 149.949 34.1985 149.818 34.4239 149.68C34.8032 149.447 35.2397 149.323 35.6851 149.323C36.1304 149.323 36.567 149.447 36.9463 149.68L39.6446 151.329L45.0631 142.586L42.3648 140.909C41.987 140.664 41.6843 140.32 41.4903 139.913C41.2963 139.507 41.2186 139.055 41.2657 138.607C41.3097 138.11 41.3262 137.611 41.3152 137.112C41.3003 136.656 41.4121 136.204 41.6381 135.807C41.8641 135.411 42.1955 135.084 42.5956 134.864L45.3434 133.375L40.4799 124.308L37.6992 125.797C37.2958 126.008 36.8417 126.103 36.3875 126.071C35.9334 126.039 35.4971 125.881 35.1273 125.616C34.7151 125.33 34.2865 125.066 33.8523 124.83C33.452 124.621 33.118 124.305 32.8879 123.916C32.6578 123.528 32.5407 123.083 32.5499 122.631L32.6763 119.477L22.3943 119.153L22.2954 122.313C22.2768 122.764 22.1334 123.201 21.8811 123.576C21.6289 123.95 21.2776 124.247 20.8665 124.434C20.6357 124.538 20.4104 124.654 20.1851 124.775C19.9598 124.896 19.74 125.022 19.5256 125.154C19.1396 125.391 18.6955 125.517 18.2424 125.517C17.7894 125.517 17.3452 125.391 16.9592 125.154L14.2665 123.511ZM22.0371 130.589C23.4682 129.562 25.1849 129.01 26.9462 129.008C28.7075 129.007 30.4249 129.558 31.8572 130.583C33.2895 131.608 34.3648 133.056 34.932 134.723C35.4993 136.391 35.5301 138.194 35.02 139.88C34.5099 141.566 33.4846 143.049 32.0881 144.123C30.6916 145.196 28.9939 145.805 27.2336 145.864C25.4733 145.923 23.7387 145.429 22.2735 144.452C20.8082 143.474 19.6859 142.063 19.064 140.415C18.4087 138.678 18.3448 136.774 18.8824 134.997C19.42 133.22 20.5289 131.671 22.0371 130.589Z" fill="#EBEBEB"/>
<path d="M239.856 38.144C239.625 38.009 239.437 37.8127 239.312 37.5769C239.186 37.341 239.129 37.0751 239.147 36.8086C239.147 36.6602 239.147 36.5119 239.147 36.3635C239.147 36.2151 239.147 36.0612 239.147 35.9129C239.129 35.6464 239.186 35.3804 239.312 35.1446C239.437 34.9088 239.625 34.7124 239.856 34.5775L241.466 33.6487L238.443 28.4006L236.811 29.3513C236.579 29.4844 236.315 29.5498 236.048 29.5401C235.78 29.5304 235.521 29.4459 235.3 29.2963C235.047 29.1369 234.789 28.9831 234.519 28.8457C234.282 28.7263 234.081 28.5436 233.941 28.3176C233.8 28.0917 233.725 27.8313 233.723 27.5652V25.6913H227.678V27.5433C227.671 27.8069 227.592 28.0637 227.45 28.2856C227.307 28.5075 227.107 28.6861 226.87 28.8017C226.6 28.9391 226.32 29.093 226.089 29.2523C225.868 29.402 225.609 29.4864 225.342 29.4962C225.074 29.5059 224.81 29.4404 224.578 29.3073L222.968 28.3786L219.94 33.6267L221.556 34.561C221.791 34.6955 221.982 34.894 222.109 35.1333C222.235 35.3727 222.291 35.643 222.27 35.9129C222.27 36.0612 222.27 36.2096 222.27 36.358C222.27 36.5064 222.27 36.6547 222.27 36.8031C222.288 37.071 222.23 37.3385 222.104 37.5755C221.978 37.8124 221.788 38.0094 221.556 38.144L219.94 39.0728L222.968 44.3209L224.573 43.3922C224.804 43.2595 225.068 43.1938 225.335 43.2026C225.602 43.2113 225.861 43.2941 226.084 43.4417C226.337 43.6086 226.599 43.7609 226.87 43.8978C227.107 44.0174 227.306 44.2004 227.446 44.4264C227.586 44.6523 227.66 44.9126 227.661 45.1782V47.0302H233.706V45.1727C233.708 44.9066 233.784 44.6463 233.924 44.4203C234.065 44.1944 234.265 44.0117 234.503 43.8923C234.773 43.7542 235.035 43.602 235.289 43.4362C235.51 43.2885 235.769 43.2056 236.035 43.1968C236.301 43.1881 236.564 43.2539 236.795 43.3867L238.405 44.3154L241.427 39.0673L239.856 38.144ZM230.711 41.3259C229.733 41.3259 228.777 41.0358 227.963 40.4924C227.15 39.9489 226.516 39.1765 226.142 38.2727C225.767 37.369 225.669 36.3745 225.86 35.4151C226.051 34.4557 226.522 33.5744 227.214 32.8827C227.905 32.191 228.787 31.7199 229.746 31.5291C230.706 31.3382 231.7 31.4362 232.604 31.8105C233.508 32.1849 234.28 32.8188 234.823 33.6322C235.367 34.4455 235.657 35.4018 235.657 36.38C235.656 37.0304 235.527 37.6743 235.277 38.2748C235.027 38.8753 234.662 39.4207 234.201 39.8796C233.74 40.3385 233.193 40.7019 232.591 40.9492C231.989 41.1964 231.345 41.3226 230.695 41.3204L230.711 41.3259Z" fill="#EBEBEB"/>
<path d="M103.524 176.003C103.309 175.877 103.13 175.698 103.005 175.482C102.879 175.266 102.812 175.022 102.809 174.773C102.809 174.525 102.809 174.283 102.809 174.036C102.783 173.788 102.798 173.537 102.853 173.294C102.914 173.051 103.04 172.829 103.216 172.651C103.403 172.488 103.61 172.349 103.832 172.239L105.112 171.492V171.519L102.057 166.287H102.128L100.446 167.277C100.137 167.431 99.7836 167.474 99.4462 167.398C99.1286 167.299 98.8269 167.154 98.5505 166.969L98.1328 166.733C97.9788 166.652 97.8394 166.546 97.7207 166.419C97.477 166.166 97.3293 165.836 97.303 165.485V163.534L97.4294 163.661L91.3844 163.716L91.5712 163.534V165.491C91.5538 165.771 91.4649 166.043 91.3129 166.28C91.1609 166.516 90.951 166.71 90.7029 166.843L90.2908 167.09L89.8786 167.332C89.7191 167.432 89.5447 167.506 89.362 167.551C88.9918 167.633 88.605 167.588 88.2629 167.425L86.5594 166.452L86.8891 166.364L83.8831 171.624L83.7841 171.255L85.4877 172.234C85.7274 172.398 85.9219 172.62 86.0534 172.879C86.185 173.139 86.2493 173.427 86.2406 173.717V174.201V174.679C86.2438 174.865 86.2178 175.051 86.1637 175.229C86.0494 175.6 85.8107 175.92 85.4877 176.135L83.7841 177.114L83.8776 176.767L86.8781 182.027L86.5703 181.944L88.2794 180.982C88.6225 180.822 89.0096 180.781 89.3785 180.867C89.5549 180.913 89.7235 180.985 89.8786 181.081L90.2963 181.329L90.7084 181.57C90.8684 181.658 91.0131 181.772 91.1371 181.906C91.3846 182.176 91.532 182.523 91.5547 182.889V184.851L91.4064 184.703L97.4514 184.763L97.3635 184.851V182.9C97.3895 182.558 97.5332 182.236 97.7701 181.988C98.0194 181.769 98.2966 181.584 98.5944 181.439C98.869 181.258 99.1666 181.116 99.4792 181.015C99.8069 180.937 100.152 180.978 100.452 181.131L102.139 182.109H102.101L105.145 176.872L103.524 176.003ZM103.524 176.003L105.134 176.927L102.128 182.18V182.208L100.435 181.246C100.148 181.107 99.8221 181.072 99.5122 181.147C99.1949 181.243 98.8945 181.388 98.6219 181.576C98.3353 181.721 98.0708 181.906 97.8361 182.125C97.623 182.356 97.4968 182.653 97.4789 182.966V184.912V185H97.3909L91.3459 185.06H91.203V184.873V182.933C91.1803 182.647 91.06 182.377 90.8623 182.169C90.7623 182.067 90.6475 181.98 90.5216 181.911L90.0929 181.669L89.6643 181.428C89.5438 181.355 89.4119 181.303 89.2741 181.274C88.9979 181.212 88.7089 181.247 88.4553 181.373L86.8067 182.356L86.6143 182.472L86.4989 182.274L83.4489 177.042L83.3225 176.822L83.5423 176.696L85.191 175.723C85.4101 175.573 85.571 175.351 85.6471 175.097C85.6846 174.968 85.7031 174.835 85.7021 174.701V174.206V173.712C85.7031 173.578 85.6846 173.445 85.6471 173.316C85.5702 173.063 85.4068 172.845 85.1855 172.701L83.5368 171.723L83.3005 171.591L83.4379 171.36L86.4824 166.128L86.6088 165.914L86.8176 166.035L88.4663 167.007C88.7116 167.128 88.9909 167.161 89.2576 167.101C89.3922 167.073 89.5206 167.021 89.6368 166.947L90.0655 166.705L90.4996 166.463C90.6217 166.399 90.7329 166.315 90.8293 166.216C91.0238 166.014 91.1406 165.749 91.1591 165.469V163.54V163.347H91.3404L97.3854 163.402H97.5228V163.529V165.469C97.543 165.771 97.665 166.058 97.869 166.282C98.1001 166.501 98.3609 166.686 98.6439 166.832C98.9027 167.016 99.1881 167.161 99.4902 167.26C99.7907 167.331 100.107 167.299 100.386 167.167L102.084 166.216L102.128 166.189V166.233L105.134 171.492L103.848 172.228C103.627 172.335 103.422 172.472 103.238 172.635C103.062 172.806 102.937 173.023 102.875 173.261C102.818 173.502 102.801 173.751 102.826 173.998C102.826 174.245 102.826 174.492 102.826 174.734C102.82 174.988 102.882 175.24 103.004 175.463C103.127 175.685 103.306 175.872 103.524 176.003Z" fill="#EBEBEB"/>
<path d="M94.3794 179.185C93.5377 179.182 92.7099 178.97 91.9699 178.569C91.2299 178.168 90.6007 177.59 90.1385 176.886C89.6762 176.183 89.3953 175.376 89.3208 174.537C89.2462 173.699 89.3803 172.855 89.7112 172.081C90.0421 171.307 90.5594 170.627 91.217 170.101C91.8746 169.576 92.652 169.221 93.4799 169.069C94.3078 168.918 95.1605 168.973 95.9618 169.231C96.7631 169.488 97.4882 169.94 98.0724 170.546C99.0172 171.534 99.5312 172.856 99.5012 174.223C99.4571 175.547 98.9009 176.803 97.9497 177.725C96.9985 178.648 95.7265 179.165 94.4014 179.169L94.3794 179.185ZM94.3794 179.185C95.0229 179.185 95.6598 179.056 96.2525 178.805C96.8453 178.555 97.382 178.188 97.8311 177.728C98.2802 177.267 98.6325 176.721 98.8675 176.122C99.1024 175.523 99.2151 174.883 99.1989 174.239C99.1618 172.984 98.6373 171.793 97.7366 170.918C96.8358 170.042 95.6297 169.553 94.3739 169.552C93.0942 169.552 91.867 170.06 90.9621 170.965C90.0572 171.87 89.5489 173.097 89.5489 174.377C89.5489 175.656 90.0572 176.884 90.9621 177.789C91.867 178.693 93.0942 179.202 94.3739 179.202L94.3794 179.185Z" fill="#EBEBEB"/>
<path d="M4.51749 241.345L34.6382 241.213L64.7589 241.163L125 241.075L185.242 241.163L215.362 241.213L245.483 241.345L215.362 241.482L185.242 241.531L125 241.619L64.7589 241.531L34.6382 241.482L4.51749 241.345Z" fill="#263238"/>
<path d="M240.559 50.2396H149.444V142.333H240.559V50.2396Z" fill="#EBEBEB"/>
<path d="M191.336 44.6837C194.375 41.1172 199.579 40.2599 204.613 41.2765C209.647 42.2932 215.675 44.8321 216.225 53.2512C216.676 60.0875 214.576 66.7535 214.576 74.3812C214.576 82.009 223.21 100.589 209.394 109.657C196.98 117.801 171.827 110.322 171.052 93.5549C170.442 80.2669 186.203 67.979 187.863 62.7199C189.523 57.4607 188.006 48.5855 191.336 44.6837Z" fill="#263238"/>
<path d="M189.066 52.185C188.973 55.9879 188.423 59.8347 186.868 63.4232C186.465 64.3321 185.938 65.1809 185.302 65.9457C184.692 66.715 184.044 67.4404 183.395 68.1438C182.087 69.5672 180.796 70.9795 179.548 72.4468C177.071 75.3215 175.023 78.5406 173.47 82.0034C171.981 85.4825 171.163 89.2115 171.058 92.9944C170.903 91.0852 170.96 89.1647 171.228 87.2681C171.525 85.3617 172.017 83.4908 172.695 81.6847C174.127 78.0659 176.155 74.7129 178.696 71.7654C179.944 70.2761 181.268 68.8528 182.587 67.4459C183.906 66.0391 185.242 64.6982 186.06 63.0495C186.9 61.3639 187.54 59.586 187.967 57.7519C188.449 55.921 188.817 54.0618 189.066 52.185Z" fill="#263238"/>
<path d="M215.879 58.9939C215.785 62.8737 215.538 66.748 215.642 70.6003C215.688 72.5189 215.849 74.4331 216.126 76.3321C216.412 78.2006 216.972 80.069 217.44 81.9595C217.907 83.8499 218.324 85.7678 218.632 87.7022C218.929 89.6456 219.055 91.6115 219.006 93.5769C218.916 95.5518 218.546 97.504 217.907 99.3746C217.169 101.213 216.068 102.884 214.67 104.288C215.895 102.782 216.827 101.059 217.418 99.2098C217.93 97.3707 218.185 95.4695 218.176 93.5604C218.02 89.7175 217.419 85.9056 216.384 82.2013C215.945 80.3163 215.384 78.4479 215.115 76.464C214.863 74.5202 214.763 72.5596 214.818 70.6003C214.934 66.7135 215.289 62.8374 215.879 58.9939Z" fill="#263238"/>
<path d="M195.892 91.6205C183.252 105.535 172.937 112.218 162.771 112.218C153.104 112.218 132.452 88.7463 130.935 85.6524C129.627 82.9816 146.581 68.3691 149.186 70.1881C153.582 73.2326 167.684 90.8566 169.178 90.939C170.673 91.0215 176.18 87.3835 189.44 81.1736C197.496 77.4092 204.685 81.9759 195.892 91.6205Z" fill="#EB9481"/>
<path d="M132.903 87.966C131.045 85.9547 123.247 75.9144 121.703 72.6391C120.159 69.3638 116.416 59.6149 118.807 58.1806C121.197 56.7462 122.516 59.5105 122.516 59.5105C122.516 59.5105 121.587 55.1471 124.126 53.9216C126.665 52.6961 128.578 57.065 128.578 57.065C128.578 57.065 127.951 52.5147 130.567 51.4706C133.183 50.4264 134.381 55.1525 134.381 55.1525C134.381 55.1525 133.612 51.0145 136.129 51.0639C139.157 51.1244 139.712 58.9114 141.684 62.4011C142.13 63.1924 151.901 77.7884 151.901 77.7884L132.903 87.966Z" fill="#EB9481"/>
<path d="M134.277 54.7514C134.7 60.4722 135.876 62.9067 139.223 67.4514C139.288 67.5394 139.173 67.6548 139.096 67.5723C135.398 63.4178 133.485 60.5821 133.985 54.7569C134.024 54.4711 134.255 54.4766 134.277 54.7514Z" fill="#263238"/>
<path d="M128.561 56.6144C129.517 62.522 130.759 65.1708 133.941 70.1882C133.985 70.2596 133.87 70.3421 133.82 70.2761C130.298 65.6105 128.451 62.7363 128.27 56.7078C128.259 56.433 128.517 56.3396 128.561 56.6144Z" fill="#263238"/>
<path d="M122.692 59.7633C124.033 65.4181 125.28 68.3802 128.984 72.8535C129.072 72.9634 128.924 73.1008 128.831 73.0019C124.61 68.8033 123.027 65.1159 122.527 59.8128C122.494 59.4611 122.61 59.4061 122.692 59.7633Z" fill="#263238"/>
<path d="M156.259 79.1842C156.259 79.1842 156.132 71.9907 155.379 68.8418C154.626 65.6929 147.532 54.9987 145.108 56.4055C142.014 58.219 144.905 65.1983 146.757 68.4406C146.757 68.4406 139.613 72.6391 140.585 78.1016C141.558 83.5641 156.259 79.1842 156.259 79.1842Z" fill="#EB9481"/>
<path d="M144.421 57.1804C142.773 60.8733 145.52 64.9675 147.087 68.2373C147.112 68.2843 147.125 68.3367 147.126 68.39C147.127 68.4434 147.115 68.4962 147.091 68.544C147.068 68.5919 147.033 68.6334 146.99 68.6651C146.947 68.6968 146.897 68.7178 146.845 68.7264C143.954 70.6882 140.453 74.2878 140.41 77.9697C140.41 77.9916 140.401 78.0126 140.385 78.028C140.37 78.0435 140.349 78.0522 140.327 78.0522C140.305 78.0522 140.284 78.0435 140.269 78.028C140.253 78.0126 140.245 77.9916 140.245 77.9697C139.756 74.013 142.904 70.1882 146.202 68.2483C144.553 64.9125 141.987 60.692 144.388 57.1474L144.421 57.1804Z" fill="#263238"/>
<path d="M174.097 86.8944L184.252 105.843C184.252 105.843 198.024 92.4723 200.222 86.8944C202.42 81.3165 200.052 77.2663 190.253 80.2503C184.656 81.9093 179.242 84.1356 174.097 86.8944Z" fill="#172090"/>
<path d="M186.599 101.892C186.099 100.864 185.659 99.8033 185.137 98.7811C184.615 97.7589 184.093 96.7478 183.549 95.7476C182.45 93.7253 181.351 91.6974 180.208 89.7026C179.559 88.6035 178.878 87.4714 178.169 86.4053C178.141 86.3558 178.048 86.4053 178.075 86.4438C179.938 90.6148 182.197 94.61 184.45 98.5778C185.104 99.7263 185.846 100.82 186.527 101.952C186.549 101.979 186.626 101.93 186.599 101.892Z" fill="#263238"/>
<path d="M200.222 86.8944C198.024 92.4723 184.252 105.843 184.252 105.843L177.41 93.0987L199.98 80.6185C201.277 81.9704 201.261 84.262 200.222 86.8944Z" fill="#263238"/>
<path d="M176.41 118.796C176.41 118.796 170.827 132.161 172.8 142.327H234.36C232.36 114.69 218.583 90.9391 210.444 83.2509C203.882 77.052 196.974 77.6071 192.166 80.7779C191.034 81.5308 178.543 98.7921 177.191 101.523C171.827 112.3 176.41 118.796 176.41 118.796Z" fill="#172090"/>
<path d="M192.594 79.9646C192.594 79.9646 188.748 91.027 190.979 91.604C196.529 93.0328 203.976 83.9708 204.421 83.0476C204.531 82.8113 205.025 76.6179 205.393 71.7983C205.63 68.6989 205.811 66.1655 205.811 66.1655L192.116 70.8641L192.556 79.3546L192.594 79.9646Z" fill="#EB9481"/>
<path d="M192.094 70.8641L192.534 79.3546C195.32 78.9644 201.448 77.4532 205.371 71.7983C205.608 68.6989 205.789 66.1655 205.789 66.1655L204.075 66.715L192.094 70.8641Z" fill="#263238"/>
<path d="M181.895 58.9774C181.73 63.2913 182.159 66.781 183.208 69.1C184.108 71.0809 185.538 72.7736 187.342 73.9902C189.145 75.2067 191.251 75.8994 193.424 75.9914C195.073 76.0518 199.821 75.6177 203.256 73.0018C205.927 70.9685 207.537 67.303 208.449 60.8568C210.537 46.118 203.794 41.1611 197.15 40.5676C190.506 39.974 182.444 44.1066 181.895 58.9774Z" fill="#EB9481"/>
<path d="M185.703 55.6911C186.049 55.6416 186.368 55.5427 186.703 55.4658C187.068 55.433 187.412 55.2847 187.687 55.0426C187.756 54.9485 187.793 54.835 187.793 54.7184C187.793 54.6018 187.756 54.4883 187.687 54.3941C187.516 54.2351 187.306 54.1244 187.078 54.0732C186.85 54.022 186.613 54.0323 186.39 54.1029C185.916 54.1782 185.487 54.427 185.187 54.8008C185.116 54.8874 185.073 54.9935 185.064 55.105C185.055 55.2166 185.08 55.3282 185.136 55.425C185.192 55.5218 185.277 55.5992 185.378 55.6467C185.479 55.6942 185.593 55.7097 185.703 55.6911Z" fill="#263238"/>
<path d="M195.414 56.0593C195.076 55.9999 194.743 55.9229 194.414 55.8285C194.049 55.7981 193.705 55.6473 193.435 55.3999C193.367 55.3057 193.329 55.1922 193.329 55.0756C193.329 54.9591 193.367 54.8455 193.435 54.7514C193.608 54.5928 193.819 54.4832 194.048 54.4339C194.277 54.3846 194.515 54.3975 194.738 54.4711C195.215 54.5475 195.647 54.8005 195.947 55.18C196.016 55.2679 196.056 55.3747 196.063 55.4862C196.069 55.5976 196.042 55.7085 195.984 55.8039C195.926 55.8994 195.841 55.975 195.739 56.0206C195.637 56.0663 195.523 56.0797 195.414 56.0593Z" fill="#263238"/>
<path d="M192.985 59.7742C192.985 59.7357 193.062 59.8237 193.062 59.8676C192.979 60.8733 193.062 62.0658 193.957 62.4285C193.957 62.4285 193.957 62.489 193.957 62.4835C192.836 62.2746 192.748 60.7139 192.985 59.7742Z" fill="#263238"/>
<path d="M193.941 58.7576C195.589 58.7137 195.546 61.9835 194.029 62.0274C192.512 62.0714 192.594 58.7961 193.941 58.7576Z" fill="#263238"/>
<path d="M194.584 58.939C194.864 59.1258 195.133 59.4555 195.485 59.4885C195.837 59.5215 196.189 59.1918 196.452 58.862C196.48 58.8291 196.507 58.862 196.507 58.9005C196.507 59.527 196.265 60.17 195.59 60.2579C194.914 60.3458 194.545 59.7743 194.391 59.1588C194.364 59.0269 194.468 58.862 194.584 58.939Z" fill="#263238"/>
<path d="M187.572 59.3456C187.572 59.3072 187.495 59.3951 187.495 59.4336C187.495 60.4502 187.39 61.6318 186.473 61.9505C186.445 61.9505 186.445 62.0109 186.473 62.0055C187.599 61.8516 187.764 60.3019 187.572 59.3456Z" fill="#263238"/>
<path d="M186.67 58.285C185.022 58.1586 184.906 61.4284 186.418 61.5438C187.929 61.6592 188.033 58.3949 186.67 58.285Z" fill="#263238"/>
<path d="M186 58.4774C185.736 58.6422 185.45 58.9445 185.159 58.9555C184.868 58.9665 184.549 58.5983 184.335 58.252C184.335 58.2136 184.285 58.252 184.28 58.285C184.241 58.9115 184.417 59.5655 185.016 59.7138C185.615 59.8622 185.983 59.3237 186.154 58.7082C186.165 58.5873 186.082 58.4114 186 58.4774Z" fill="#263238"/>
<path d="M192.886 67.6438C192.649 67.8911 192.419 68.2263 192.056 68.2703C191.679 68.273 191.305 68.2002 190.957 68.0559C190.95 68.0501 190.942 68.0471 190.933 68.0476C190.924 68.0482 190.916 68.0521 190.91 68.0587C190.904 68.0652 190.901 68.0739 190.902 68.0826C190.902 68.0914 190.906 68.0996 190.913 68.1054C191.065 68.2994 191.267 68.4487 191.497 68.5376C191.728 68.6266 191.977 68.6519 192.221 68.611C192.424 68.5475 192.604 68.4265 192.74 68.2626C192.875 68.0987 192.96 67.899 192.985 67.6877C192.988 67.6752 192.986 67.662 192.981 67.6504C192.975 67.6387 192.965 67.6295 192.954 67.6242C192.942 67.619 192.929 67.6181 192.916 67.6216C192.904 67.6252 192.893 67.6331 192.886 67.6438Z" fill="#263238"/>
<path d="M188.748 63.8904C188.748 63.8904 188.506 65.4016 188.495 66.116C188.495 66.182 188.665 66.215 188.907 66.2369C188.907 66.2369 188.907 66.2369 188.935 66.2369C189.541 66.3569 190.169 66.3087 190.75 66.0975C191.331 65.8864 191.844 65.5203 192.232 65.0389C192.281 64.973 192.193 64.8961 192.127 64.94C191.204 65.5415 190.112 65.8305 189.011 65.7643C188.968 65.561 189.512 63.1925 189.396 63.1815C188.834 63.2164 188.279 63.3292 187.748 63.5167C188.16 60.3568 189.072 57.2903 189.429 54.1414C189.429 54.0315 189.281 53.993 189.248 54.092C188.061 57.2354 187.511 60.8624 187 64.1102C186.956 64.5224 188.44 64.0113 188.748 63.8904Z" fill="#263238"/>
<path d="M189.363 65.8632C189.715 66.4019 190.199 66.8409 190.77 67.1381C191.085 67.288 191.437 67.3379 191.781 67.281C192.534 67.1436 192.605 66.4677 192.518 65.8797C192.464 65.5667 192.375 65.2607 192.254 64.9674C191.411 65.5668 190.398 65.8807 189.363 65.8632Z" fill="#263238"/>
<path d="M190.77 67.1382C191.085 67.2881 191.437 67.338 191.781 67.2811C192.534 67.1437 192.605 66.4677 192.518 65.8797C192.127 65.8623 191.742 65.977 191.425 66.2054C191.108 66.4337 190.877 66.7624 190.77 67.1382Z" fill="#FF98B9"/>
<path d="M208.18 59.5324C206.558 59.5819 201.959 55.5372 201.123 47.7666C201.123 47.7666 202.36 54.6909 202.975 55.6636C203.591 56.6363 200.404 53.383 199.64 47.1291C199.64 47.1291 196.397 49.9538 193.507 51.0529C190.616 52.152 188.808 52.2949 188.561 52.097C188.314 51.8992 192.562 50.1297 193.617 48.6679C193.617 48.6679 186.071 53.0642 182.466 53.6578C182.049 53.7237 182.752 47.2336 188.033 43.057C193.314 38.8804 200.574 39.9246 203.179 42.0129C203.179 42.0129 206.025 42.1612 209.455 46.0355C212.884 49.9098 209.922 59.4775 208.18 59.5324Z" fill="#263238"/>
<path d="M206.042 61.9065C206.042 61.9065 209.059 57.1089 211.219 58.1641C213.378 59.2192 211.274 66.0611 208.85 67.0997C208.549 67.2556 208.218 67.3487 207.88 67.3734C207.541 67.3981 207.201 67.3539 206.88 67.2435C206.559 67.133 206.264 66.9587 206.012 66.7309C205.76 66.5031 205.557 66.2266 205.415 65.9182L206.042 61.9065Z" fill="#EB9481"/>
<path d="M210.565 60.126C210.609 60.126 210.614 60.1754 210.565 60.1919C208.867 60.9778 208.037 62.6319 207.476 64.33C207.965 63.6596 208.647 63.2749 209.537 63.8464C209.581 63.8739 209.537 63.9508 209.493 63.9398C209.187 63.8651 208.866 63.8849 208.571 63.9968C208.277 64.1087 208.023 64.3073 207.844 64.5663C207.548 65.0106 207.298 65.4838 207.097 65.9787C207.026 66.138 206.74 66.0721 206.795 65.8907C206.792 65.8762 206.792 65.8613 206.795 65.8468C206.641 63.6266 208.207 60.4502 210.565 60.126Z" fill="#263238"/>
<path d="M215.208 86.2679C221.297 93.2966 238.366 118.741 234.41 125.616C230.612 132.21 222.001 134.068 217.044 125.209C213.477 118.873 207.482 99.9681 205.992 90.9006C204.783 83.5587 209.581 79.7668 215.208 86.2679Z" fill="#EB9481"/>
<path d="M209.521 108.794L229.7 101.38C229.7 101.38 218.374 85.8777 213.159 82.9266C207.943 79.9756 203.602 81.7561 205.196 91.8733C206.053 97.6468 207.503 103.317 209.521 108.794Z" fill="#172090"/>
<path d="M226.117 98.5008C225.018 98.858 223.919 99.1438 222.82 99.5175C221.721 99.8912 220.665 100.27 219.599 100.672C217.44 101.474 215.285 102.276 213.148 103.139C211.95 103.623 210.752 104.145 209.581 104.694C209.526 104.694 209.548 104.81 209.581 104.793C213.977 103.529 218.242 101.848 222.484 100.171C223.715 99.6824 224.897 99.0724 226.111 98.5833C226.194 98.5613 226.155 98.4843 226.117 98.5008Z" fill="#263238"/>
<path d="M210.658 108.321C210.259 108.41 209.867 108.531 209.488 108.684C208.938 107.491 207.636 102.249 207.333 100.902C206.729 98.2206 206.234 95.5113 205.602 92.8295C205.602 92.7526 205.454 92.7746 205.465 92.8295C205.652 94.3188 205.883 95.8026 206.141 97.2754C205.866 96.5719 205.591 95.863 205.377 95.1431C205.379 95.1381 205.38 95.1326 205.38 95.1272C205.379 95.1217 205.377 95.1165 205.374 95.1119C205.371 95.1073 205.367 95.1035 205.362 95.1009C205.358 95.0983 205.352 95.097 205.347 95.097C205.341 95.097 205.336 95.0983 205.331 95.1009C205.326 95.1035 205.322 95.1073 205.319 95.1119C205.316 95.1165 205.314 95.1217 205.314 95.1272C205.313 95.1326 205.314 95.1381 205.317 95.1431C205.566 96.0373 205.873 96.9147 206.234 97.77C206.449 100.518 208.949 109.25 209.02 109.217C209.586 108.961 210.136 108.673 210.669 108.354C210.73 108.371 210.73 108.316 210.658 108.321Z" fill="#263238"/>
<path d="M200.678 56.5924L194.936 81.1077C194.688 81.8276 195.057 82.4046 195.76 82.3936L206.723 84.6248C207.108 84.5896 207.474 84.4459 207.779 84.2104C208.085 83.9749 208.317 83.6574 208.449 83.2949L214.192 58.7796C214.439 58.0596 214.071 57.4826 213.367 57.4991L202.404 55.2625C202.02 55.2976 201.654 55.4413 201.348 55.6768C201.042 55.9123 200.81 56.2298 200.678 56.5924Z" fill="#A6A6A6"/>
<path d="M201.618 56.7297L195.892 81.245C195.644 81.9649 196.013 82.542 196.716 82.531L207.68 84.7621C208.063 84.7274 208.429 84.5846 208.734 84.3501C209.04 84.1156 209.272 83.7992 209.405 83.4377L215.126 58.9224C215.373 58.197 215.005 57.6255 214.302 57.6365L203.344 55.3998C202.96 55.4369 202.595 55.5813 202.29 55.8166C201.984 56.0518 201.752 56.3683 201.618 56.7297Z" fill="#DBDBDB"/>
<path d="M205.091 57.7849C205.097 58.0048 205.036 58.2212 204.917 58.4062C204.798 58.5912 204.626 58.7363 204.424 58.8227C204.222 58.9091 203.998 58.9328 203.783 58.8908C203.567 58.8488 203.368 58.743 203.213 58.5871C203.058 58.4312 202.953 58.2323 202.913 58.0163C202.872 57.8002 202.896 57.5768 202.984 57.375C203.071 57.1732 203.217 57.0023 203.403 56.8843C203.589 56.7663 203.805 56.7068 204.025 56.7133C204.308 56.7148 204.579 56.8283 204.779 57.0291C204.979 57.2299 205.091 57.5017 205.091 57.7849Z" fill="#263238"/>
<path d="M219.973 127.429C223.54 134.024 232.981 130.265 234.41 125.615C237.762 114.707 235.685 96.5719 233.684 86.4438C233.041 83.1849 210.905 86.4438 211.037 89.9664C211.191 94.2254 212.983 114.46 219.973 127.429Z" fill="#EB9481"/>
<path d="M233.437 91.2852C234.552 86.4796 234.619 81.4903 233.635 76.6563C232.47 71.3861 228.661 60.2084 213.351 55.224C209.718 54.0369 203.701 54.9217 208.955 59.0103C212.669 61.9174 215.901 62.6374 217.747 64.7256C217.747 64.7256 210.229 66.759 209.185 70.4409C208.271 73.6638 207.586 76.9473 207.136 80.2668C207.724 80.4875 208.326 80.671 208.938 80.8164C208.615 84.0222 209.361 87.2448 211.059 89.9828L233.437 91.2852Z" fill="#EB9481"/>
<path d="M231.717 71.8038C229.442 70.1552 224.573 66.6491 219.577 65.2093C214.038 63.5606 202.942 61.967 201.788 66.0611C200.942 69.0671 205.124 70.0618 205.124 70.0618C205.124 70.0618 200.398 70.3585 200.228 73.2382C200.074 75.865 203.355 76.442 203.355 76.442C203.355 76.442 200.519 77.1125 200.854 79.6734C201.261 82.7453 207.147 80.8329 210.251 83.5916C210.949 84.1961 231.717 71.8038 231.717 71.8038Z" fill="#EB9481"/>
<path d="M218.841 71.3257C216.445 70.0948 210.279 68.7044 205.212 69.9629C205.097 69.9629 205.058 70.0893 205.168 70.0893C209.757 69.9654 214.345 70.3972 218.83 71.3752C218.857 71.3862 218.868 71.3367 218.841 71.3257Z" fill="#263238"/>
<path d="M217.049 76.8652C214.851 76.0189 208.449 74.8648 203.36 76.3156C203.245 76.3486 203.212 76.453 203.322 76.4475C207.904 76.0815 212.514 76.24 217.06 76.9201C217.068 76.9187 217.074 76.9144 217.078 76.9082C217.082 76.902 217.084 76.8944 217.082 76.8872C217.081 76.8799 217.077 76.8735 217.07 76.8693C217.064 76.8652 217.057 76.8637 217.049 76.8652Z" fill="#263238"/>
<path d="M217.951 122.835C217.786 122.285 217.626 121.736 217.451 121.236C217.088 120.136 216.775 119.037 216.456 117.938C215.807 115.74 215.186 113.509 214.642 111.267C213.557 106.798 212.733 102.269 212.175 97.704C212.021 96.44 211.889 95.1761 211.752 93.9121C211.614 92.6481 211.57 91.3347 211.329 90.0653C211.329 89.9993 210.686 89.0321 210.433 88.554C210.17 88.0567 209.941 87.5426 209.746 87.0153C209.335 85.9392 209.056 84.8173 208.916 83.674C208.913 83.6669 208.908 83.6608 208.902 83.6565C208.896 83.6521 208.888 83.6498 208.88 83.6498C208.873 83.6498 208.865 83.6521 208.859 83.6565C208.852 83.6608 208.847 83.6669 208.845 83.674C208.773 84.975 208.937 86.2781 209.328 87.5209C209.667 88.5604 210.251 89.503 211.032 90.2686C211.032 90.4335 211.07 92.4668 211.136 93.6043C211.202 94.7419 211.307 95.8795 211.433 97.0115C211.691 99.2867 212.01 101.556 212.411 103.815C213.195 108.384 214.286 112.895 215.675 117.317C215.675 117.389 215.725 117.46 215.747 117.532C215.747 117.696 215.747 117.861 215.747 118.026C215.755 118.433 215.788 118.838 215.846 119.241C215.959 120.041 216.156 120.828 216.434 121.587C216.431 121.594 216.431 121.601 216.431 121.608C216.432 121.615 216.435 121.622 216.439 121.628C216.443 121.634 216.448 121.638 216.455 121.642C216.461 121.645 216.468 121.647 216.475 121.647C216.482 121.647 216.489 121.645 216.495 121.642C216.502 121.638 216.507 121.634 216.511 121.628C216.515 121.622 216.518 121.615 216.519 121.608C216.52 121.601 216.519 121.594 216.516 121.587C216.321 120.793 216.189 119.984 216.121 119.169L216.022 118.334C216.324 119.224 216.643 120.115 216.956 120.999C217.176 121.615 217.401 122.214 217.654 122.813C217.907 123.412 218.104 123.994 218.401 124.549C218.401 124.593 218.489 124.549 218.478 124.516C218.341 123.928 218.121 123.39 217.951 122.835Z" fill="#263238"/>
<path d="M149.444 142.327V127.555L132.655 142.327H149.444Z" fill="#EBEBEB"/>
<path d="M63.1596 173.646C67.9957 194.688 77.9974 219.912 82.2674 224.006C87.6694 229.183 123.406 238.679 125.187 238.872C129.583 239.317 138.448 207.547 133.743 206.86C126.599 205.827 100.573 204.415 99.0176 202.816C97.4624 201.217 86.4165 187.291 75.1288 171.646C67.3362 160.836 60.1536 160.589 63.1596 173.646Z" fill="#AD6359"/>
<path d="M121.648 237.157C122.17 237.421 129.638 241.18 134.255 242.515C137.7 243.515 147.691 246.126 149.169 242.438C150.18 239.932 144.482 237.707 140.492 236.041C138.387 235.162 135.793 232.964 136.414 231.612C137.513 229.249 142.915 231.612 146.476 233.689C153.362 237.69 162.534 244.895 166.738 241.383C168.326 240.064 166.48 237.657 163.782 235.3C168.178 238.047 172.838 240.3 174.657 238.905C175.707 238.108 175.756 237.014 175.174 235.772C176.526 236.212 177.718 236.124 178.554 235.223C179.977 233.728 179.284 231.53 177.724 229.271C177.992 229.243 178.249 229.152 178.475 229.005C178.7 228.858 178.887 228.659 179.021 228.425C182.038 223.825 166.931 210.619 161.715 209.383C146.356 205.728 130.166 206.41 130.166 206.41C124.132 211.251 121.631 237.146 121.648 237.157Z" fill="#AD6359"/>
<path d="M144.234 223.017C147.892 223.588 151.385 224.932 154.483 226.957C158.38 229.529 160.963 232.541 164.227 235.569C164.24 235.586 164.246 235.607 164.246 235.629C164.245 235.65 164.237 235.671 164.222 235.687C164.208 235.703 164.189 235.714 164.168 235.717C164.146 235.721 164.125 235.717 164.106 235.706C162.551 234.266 156.099 228.848 154.434 227.617C151.422 225.351 147.934 223.798 144.234 223.078C144.185 223.072 144.196 223.006 144.234 223.017Z" fill="#263238"/>
<path d="M147.097 216.494C151.137 217.593 155.275 218.692 159.023 220.627C163.122 222.715 166.332 226.122 169.464 229.419C171.362 231.387 173.214 233.402 175.02 235.464C175.091 235.552 174.976 235.69 174.899 235.602C171.697 232.217 168.4 228.919 165.007 225.71C161.867 222.73 158.169 220.399 154.126 218.852C151.818 217.967 149.444 217.269 147.07 216.566C147.037 216.555 147.054 216.483 147.097 216.494Z" fill="#263238"/>
<path d="M151.411 210.795C155.335 211.603 158.759 212.29 162.232 214.389C166.832 217.176 171.272 221.863 172.827 223.528C174.547 225.364 176.207 227.254 177.834 229.172C177.9 229.249 177.768 229.37 177.696 229.293C173.968 225.088 169.972 221.128 165.733 217.439C163.738 215.653 161.481 214.185 159.039 213.087C156.564 212.115 154.01 211.358 151.406 210.823C151.406 210.823 151.378 210.79 151.411 210.795Z" fill="#263238"/>
<path d="M127.693 205.146L116.702 239.965C116.702 239.965 86.944 231.469 81.531 225.606C76.118 219.742 66.0557 189.462 63.1047 174.783C60.1536 160.105 67.5725 160.495 74.3924 169.722C81.2123 178.949 98.1933 201.403 99.122 201.893C100.051 202.382 127.693 205.146 127.693 205.146Z" fill="#172090"/>
<path opacity="0.1" d="M127.693 205.146L116.702 239.965C116.702 239.965 86.944 231.469 81.531 225.606C76.118 219.742 66.0557 189.462 63.1047 174.783C60.1536 160.105 67.5725 160.495 74.3924 169.722C81.2123 178.949 98.1933 201.403 99.122 201.893C100.051 202.382 127.693 205.146 127.693 205.146Z" fill="black"/>
<path d="M113.844 224.496C115.18 220.39 116.543 216.296 117.719 212.142C118.389 209.784 119.071 207.421 119.719 205.058C119.747 204.965 119.598 204.915 119.565 205.003C118.065 209.07 116.57 213.153 115.257 217.285C113.943 221.418 112.608 225.529 111.355 229.634C110.646 231.986 110.003 234.349 109.437 236.739C109.437 236.783 109.503 236.811 109.519 236.767C111.157 232.75 112.503 228.628 113.844 224.496Z" fill="#263238"/>
<path d="M101.694 235.179L100.375 234.717C97.8965 233.832 95.3686 232.882 92.9891 231.909C92.6813 231.788 92.3791 231.662 92.0823 231.535C91.6042 231.337 91.1261 231.134 90.6645 230.931L89.9721 230.628L89.7248 230.518L89.0104 230.189C88.0651 229.755 87.1694 229.32 86.3341 228.881L85.7845 228.573C84.4788 227.901 83.2482 227.093 82.1136 226.161C82.0091 226.067 81.9047 225.974 81.8113 225.88C81.7179 225.787 81.619 225.693 81.5365 225.606C76.096 219.742 66.0613 189.462 63.1102 174.783L63.0113 174.278V174.168C62.8135 173.069 62.6376 171.673 62.4947 170.178C62.0826 162.875 65.5392 161.682 69.8092 164.892C80.4539 187.736 96.759 225.485 101.694 235.179Z" fill="#263238"/>
<path d="M86.2571 241.026L21.4106 241.367C21.4655 239.971 30.6979 199.139 38.0399 184.071C47.4536 164.749 52.3281 163.188 55.2022 162.155C58.9116 160.825 65.5172 161.484 67.0834 162.226C68.8639 163.056 74.5243 172.937 76.5521 180.186C80.6078 194.765 87.1694 240.136 86.2571 241.026Z" fill="#EBEBEB"/>
<path d="M51.8775 163.683C51.8775 163.683 60.1207 194.21 60.5328 196.238C61.1538 199.183 65.2644 241.213 65.2644 241.213L20.0642 241.367C20.0642 241.367 29.9285 202.459 37.2705 185.423C45.2829 166.738 51.8775 163.683 51.8775 163.683Z" fill="#172090"/>
<g opacity="0.1">
<path d="M51.8775 163.683C51.8775 163.683 60.1207 194.21 60.5328 196.238C61.1538 199.183 65.2644 241.213 65.2644 241.213L20.0642 241.367C20.0642 241.367 29.9285 202.459 37.2705 185.423C45.2829 166.738 51.8775 163.683 51.8775 163.683Z" fill="black"/>
</g>
<path d="M67.6769 162.699C67.9187 163.672 75.519 188.473 76.0465 194.655C76.6346 201.513 81.8333 241.367 81.8333 241.367H88.4278C88.4278 241.367 78.8822 184.109 76.2609 178.059C70.8973 165.71 67.6769 162.699 67.6769 162.699Z" fill="#172090"/>
<path opacity="0.1" d="M67.6769 162.699C67.9187 163.672 75.519 188.473 76.0465 194.655C76.6346 201.513 81.8333 241.367 81.8333 241.367H88.4278C88.4278 241.367 78.8822 184.109 76.2609 178.059C70.8973 165.71 67.6769 162.699 67.6769 162.699Z" fill="black"/>
<path d="M43.343 170.821C32.484 182.455 6.08373 226.595 14.4588 234.646C22.8339 242.697 69.3311 231.859 82.3884 225.633C86.2737 223.787 71.5128 199.563 66.9461 198.997C63.1432 198.529 43.7112 207.416 43.1452 206.3C42.5132 205.036 45.6017 195.71 50.2893 178.823C55.6694 159.358 48.1461 165.677 43.343 170.821Z" fill="#AD6359"/>
<path d="M86.2462 191.182C95.6874 189.863 98.3362 190.979 105.695 185.637C110.536 182.131 114.856 183.719 112.091 189.286C107.574 198.398 95.7479 202.651 91.2086 202.948L86.2462 191.182Z" fill="#AD6359"/>
<path d="M61.1647 200.26C61.1647 200.26 71.7765 194.369 81.7013 191.973C88.5597 190.325 103.892 188.374 118.565 203.514C122.044 207.102 124.456 214.686 116.647 210.889C111.097 208.19 108.404 204.805 104.881 203.822C104.881 203.822 106.805 213.829 103.073 217.176C99.812 220.1 96.3465 222.789 92.7032 225.221C92.1042 224.657 91.5425 224.055 91.0216 223.418C91.0216 223.418 87.2408 226.216 80.1296 225.534L61.1647 200.26Z" fill="#AD6359"/>
<path d="M88.5047 191.468C91.802 193.177 98.6768 196.919 103.249 201.942C108.332 207.525 116.614 219.637 112.454 223.374C109.41 226.095 105.859 221.726 105.859 221.726C105.859 221.726 108.228 227.457 104.936 229.309C101.941 231.002 99.3803 227.474 99.3803 227.474C99.3803 227.474 100.221 231.194 97.0172 232.266C93.1704 233.552 92.0383 225.54 87.01 223.473C85.8614 222.979 88.5047 191.468 88.5047 191.468Z" fill="#AD6359"/>
<path d="M96.4622 206.305C99.2814 208.421 104.458 214.867 105.887 221.544C105.92 221.698 105.826 221.803 105.766 221.671C103.284 216.206 100.146 211.063 96.4237 206.355C96.3798 206.305 96.4237 206.305 96.4622 206.305Z" fill="#263238"/>
<path d="M90.9777 211.598C93.2254 213.675 98.2647 220.555 99.4792 227.375C99.5067 227.529 99.4023 227.628 99.3528 227.49C97.1523 221.906 94.3261 216.589 90.9283 211.642C90.8953 211.609 90.9282 211.57 90.9777 211.598Z" fill="#263238"/>
<path d="M104.881 203.756C107.959 204.662 109.959 206.174 112.575 207.976C113.848 208.886 115.171 209.724 116.537 210.488C117.79 211.163 119.642 212.186 120.972 211.125C121.719 210.537 121.708 209.476 121.522 208.614C121.146 207.365 120.575 206.183 119.829 205.113C119.829 205.069 119.867 205.02 119.9 205.058C120.62 206.033 121.239 207.079 121.747 208.179C122.08 208.934 122.177 209.77 122.027 210.581C121.571 212.274 119.571 212.499 118.18 212.032C117.338 211.722 116.528 211.33 115.762 210.861C115.015 210.433 114.29 209.971 113.564 209.487C112.102 208.498 110.701 207.427 109.25 206.421C107.841 205.475 106.372 204.619 104.854 203.86C104.842 203.854 104.833 203.845 104.828 203.833C104.822 203.822 104.821 203.809 104.824 203.796C104.828 203.784 104.835 203.773 104.845 203.766C104.856 203.758 104.869 203.755 104.881 203.756Z" fill="#263238"/>
<path d="M111.327 214.582C110.531 212.829 106.217 205.52 104.821 203.827C104.816 203.819 104.814 203.809 104.815 203.799C104.816 203.789 104.82 203.78 104.827 203.773C104.834 203.766 104.843 203.762 104.853 203.76C104.863 203.759 104.873 203.761 104.881 203.767C107.283 206.042 111.135 212.081 112.025 214.016C112.916 215.95 113.938 218.374 113.938 220.5C113.938 223.715 111.806 224.347 111.02 224.484C110.079 224.655 109.109 224.496 108.272 224.034C107.293 223.436 106.447 222.643 105.788 221.704C105.755 221.66 105.816 221.599 105.854 221.643C106.953 222.913 108.822 224.16 110.564 223.929C110.95 223.893 111.325 223.779 111.667 223.595C112.009 223.411 112.31 223.16 112.553 222.858C113.029 222.085 113.212 221.166 113.07 220.269C112.813 218.289 112.224 216.366 111.327 214.582Z" fill="#263238"/>
<path d="M61.1648 200.26L76.0465 231.585C76.0465 231.585 17.8385 244.653 12.8156 234.519C7.79277 224.386 30.4011 184.73 40.5843 173.179C52.394 159.792 53.8998 164.347 51.3004 176.212C48.5527 188.632 43.3155 206.591 43.3155 206.591L61.1648 200.26Z" fill="#172090"/>
<path opacity="0.1" d="M61.1648 200.26L76.0465 231.585C76.0465 231.585 17.8385 244.653 12.8156 234.519C7.79277 224.386 30.4011 184.73 40.5843 173.179C52.394 159.792 53.8998 164.347 51.3004 176.212C48.5527 188.632 43.3155 206.591 43.3155 206.591L61.1648 200.26Z" fill="black"/>
<path d="M25.6256 214.928C30.9947 211.199 36.8904 208.293 43.1177 206.305C44.8818 205.756 46.6623 205.234 48.4428 204.723C48.4978 204.723 48.5198 204.794 48.4428 204.811C45.3374 205.816 42.2932 207.001 39.3259 208.361C36.362 209.68 33.431 211.052 30.5331 212.477C28.8845 213.285 27.2798 214.17 25.6641 215.032C25.6533 215.03 25.6432 215.025 25.6348 215.018C25.6265 215.01 25.6201 215.001 25.6162 214.991C25.6124 214.98 25.6112 214.969 25.6129 214.958C25.6145 214.947 25.6189 214.937 25.6256 214.928Z" fill="#263238"/>
<path d="M61.0109 200.178C60.7197 200.255 44.7993 205.514 44.2772 205.756C44.3432 205.514 47.2008 197.051 47.6295 195.809C47.6679 195.688 47.7064 195.562 47.7504 195.441C48.0361 194.891 48.3329 194.342 48.6022 193.792C48.9429 193.072 49.2836 192.341 49.6188 191.594H49.5859L48.4868 193.721C48.3164 194.045 48.157 194.38 47.9977 194.716C48.2779 193.842 48.5472 192.962 48.8165 192.078C49.2451 190.676 49.6298 189.259 50.009 187.841C50.009 187.791 49.9541 187.78 49.9376 187.841C49.0913 190.308 48.168 192.748 47.3162 195.216C46.4644 197.683 43.1891 206.756 43.2166 206.756C43.2441 206.756 60.7472 200.568 61.0879 200.431C61.1045 200.426 61.1199 200.418 61.1333 200.406C61.1467 200.395 61.1578 200.382 61.166 200.367C61.1741 200.351 61.1792 200.335 61.1809 200.317C61.1826 200.3 61.1809 200.283 61.1758 200.266C61.1708 200.249 61.1625 200.234 61.1515 200.221C61.1404 200.207 61.1269 200.196 61.1116 200.188C61.0963 200.18 61.0795 200.175 61.0622 200.173C61.045 200.171 61.0275 200.173 61.0109 200.178Z" fill="#263238"/>
<path d="M62.0825 220.594C60.4339 217.104 58.8347 213.592 57.0707 210.152C56.065 208.201 55.0703 206.245 54.0481 204.305C54.0097 204.234 53.8778 204.305 53.9108 204.366C55.4165 207.938 56.9333 211.51 58.6039 215.021C60.2745 218.533 61.9012 222 63.5993 225.463C64.5665 227.43 65.5941 229.366 66.6822 231.271C66.6822 231.31 66.7702 231.271 66.7537 231.271C65.3688 227.633 63.7367 224.122 62.0825 220.594Z" fill="#263238"/>
<path d="M76.7994 232.068C76.2169 231.101 75.4805 229.716 74.8595 228.771C74.6946 228.524 74.5023 228.573 74.6342 228.831C75.0793 229.711 75.4475 230.694 75.8817 231.579C75.0683 231.744 74.233 231.887 73.4307 232.057C72.4855 232.255 71.5457 232.458 70.6005 232.651C68.7467 233.017 66.8929 233.383 65.0391 233.75C61.2802 234.45 57.5066 235.065 53.7184 235.596C46.1293 236.708 38.4877 237.425 30.8243 237.745C28.681 237.822 26.5323 237.86 24.3891 237.833C22.275 237.838 20.1619 237.736 18.0583 237.525C17.9979 237.525 17.9869 237.619 18.0583 237.63C19.8685 238.012 21.706 238.251 23.5538 238.344C25.4937 238.437 27.4391 238.481 29.3845 238.459C33.2313 238.415 37.1166 238.163 40.9689 237.811C48.6076 237.108 56.2244 236.074 63.7751 234.739C65.8927 234.373 68.0048 233.975 70.1114 233.546C71.1775 233.332 72.2382 233.118 73.2988 232.882C74.3594 232.645 76.8983 232.233 76.7994 232.068Z" fill="#263238"/>
<path d="M67.6879 174.091C63.8411 175.152 56.9552 169.464 54.1416 164.749C53.9492 164.424 54.3284 160.929 54.5867 156.659C54.7351 154.071 54.834 151.164 54.7351 148.537C54.7351 147.987 71.4578 151.955 71.4578 151.955C71.4578 151.955 70.029 157.55 70.2268 162.155C70.2443 162.525 70.2958 162.893 70.3807 163.254C70.3958 163.312 70.4069 163.37 70.4137 163.43C70.8258 165.469 71.4083 173.063 67.6879 174.091Z" fill="#AD6359"/>
<path d="M55.7572 148.603C56.6914 153.043 59.8678 163.732 68.7155 163.606C69.283 163.6 69.849 163.549 70.4081 163.452C70.4151 163.391 70.4151 163.331 70.4081 163.27C70.3266 162.909 70.2733 162.541 70.2488 162.171C70.0564 157.561 71.4797 151.961 71.4797 151.961C71.4797 151.961 59.3787 149.103 55.7572 148.603Z" fill="#263238"/>
<path d="M73.4527 140.607C73.2658 144.663 76.0026 148.081 79.5637 148.246C83.1247 148.411 86.1582 145.245 86.3396 141.19C86.5209 137.134 83.7842 133.716 80.2286 133.556C76.673 133.397 73.634 136.551 73.4527 140.607Z" fill="#455A64"/>
<path d="M85.6862 141.414C85.8902 136.902 82.8457 133.1 78.8859 132.92C74.9262 132.741 71.5507 136.253 71.3467 140.765C71.1426 145.277 74.1871 149.079 78.1469 149.258C82.1066 149.437 85.4821 145.925 85.6862 141.414Z" fill="#C7C7C7"/>
<path d="M56.9168 127.495C54.0372 132.924 53.8558 150.186 57.241 154.703C62.1485 161.243 71.793 163.644 77.7391 157.396C83.5259 151.318 83.361 128.819 79.4317 124.549C73.656 118.246 61.1703 119.477 56.9168 127.495Z" fill="#AD6359"/>
<path d="M71.2709 140.838C71.2709 140.794 71.1775 140.898 71.183 140.948C71.2435 142.107 71.1226 143.448 70.0839 143.855C70.051 143.855 70.0565 143.926 70.0839 143.921C71.3699 143.712 71.5128 141.931 71.2709 140.838Z" fill="#263238"/>
<path d="M70.2049 139.651C68.3309 139.552 68.2705 143.305 70.0016 143.393C71.7326 143.481 71.7766 139.733 70.2049 139.651Z" fill="#263238"/>
<path d="M77.7776 140.981C77.7776 140.937 77.8655 141.041 77.8655 141.085C77.8106 142.25 77.9425 143.591 78.9646 143.992C78.9976 143.992 78.9646 144.064 78.9646 144.058C77.6952 143.855 77.5358 142.074 77.7776 140.981Z" fill="#263238"/>
<path d="M78.8382 139.81C80.7067 139.695 80.7946 143.448 79.058 143.553C77.3215 143.657 77.2665 139.876 78.8382 139.81Z" fill="#263238"/>
<path d="M68.5233 136.65C69.0728 136.623 69.5289 136.507 70.051 136.43C70.6017 136.42 71.1334 136.227 71.5622 135.881C71.6773 135.749 71.7451 135.582 71.755 135.407C71.765 135.232 71.7165 135.058 71.6172 134.914C71.3769 134.661 71.0735 134.477 70.7384 134.38C70.4032 134.283 70.0483 134.278 69.7103 134.364C68.9941 134.421 68.3254 134.745 67.8363 135.271C67.7339 135.397 67.6699 135.55 67.652 135.712C67.6342 135.873 67.6632 136.036 67.7357 136.182C67.8081 136.327 67.9209 136.449 68.0606 136.532C68.2002 136.615 68.3609 136.656 68.5233 136.65Z" fill="#263238"/>
<path d="M80.6023 137.063C80.1006 136.952 79.6052 136.815 79.1185 136.65C78.5779 136.585 78.0738 136.344 77.6842 135.963C77.5856 135.818 77.5381 135.645 77.549 135.469C77.56 135.294 77.6288 135.128 77.7446 134.996C78.0134 134.771 78.3372 134.621 78.6829 134.562C79.0286 134.503 79.3838 134.537 79.712 134.661C80.4147 134.809 81.0375 135.212 81.4596 135.793C81.5418 135.931 81.5831 136.09 81.5785 136.25C81.574 136.411 81.5238 136.567 81.4339 136.7C81.344 136.833 81.218 136.938 81.0708 137.002C80.9235 137.066 80.761 137.087 80.6023 137.063Z" fill="#263238"/>
<path d="M69.1497 151.615C69.4245 151.889 69.6993 152.269 70.1169 152.312C70.5491 152.309 70.9758 152.215 71.3699 152.038C71.3778 152.036 71.386 152.037 71.3936 152.039C71.4012 152.042 71.4079 152.047 71.413 152.053C71.4181 152.059 71.4214 152.067 71.4225 152.075C71.4237 152.083 71.4226 152.091 71.4194 152.098C71.2508 152.325 71.0236 152.502 70.7622 152.609C70.5008 152.717 70.215 152.751 69.9356 152.708C69.6993 152.642 69.4878 152.508 69.3275 152.322C69.1672 152.136 69.0652 151.907 69.0343 151.664C69.0178 151.598 69.1058 151.571 69.1497 151.615Z" fill="#263238"/>
<path d="M70.4302 148.152C70.7171 148.617 71.0972 149.017 71.5465 149.327C71.9958 149.637 72.5045 149.851 73.0405 149.955C73.5079 150.055 73.9874 150.086 74.4638 150.048C74.5559 150.045 74.6477 150.036 74.7386 150.021L74.9914 149.982C75.0536 149.972 75.1109 149.942 75.1545 149.896C75.1981 149.851 75.2257 149.792 75.2332 149.73C75.2359 149.689 75.2359 149.649 75.2332 149.609V149.504C75.2717 148.609 75.2332 147.246 75.2332 147.246C75.5574 147.416 77.2171 148.196 77.1951 147.729C77.0302 143.849 76.8434 139.541 75.8597 135.722C75.8541 135.697 75.8405 135.676 75.8211 135.66C75.8016 135.645 75.7774 135.636 75.7525 135.636C75.7276 135.636 75.7034 135.645 75.684 135.66C75.6645 135.676 75.6509 135.697 75.6454 135.722C75.6454 139.453 76.3268 143.157 76.3982 146.905C75.8098 146.62 75.1846 146.419 74.5408 146.306C74.4144 146.344 74.7111 148.938 74.6617 149.339C74.663 149.354 74.663 149.369 74.6617 149.383C73.1504 149.548 72.0238 149.076 70.584 148.043C70.4521 147.982 70.3587 148.053 70.4302 148.152Z" fill="#263238"/>
<path d="M73.9418 149.581C73.4421 150.214 72.787 150.706 72.0404 151.01C71.6283 151.163 71.179 151.184 70.7544 151.07C69.8312 150.807 69.8202 149.971 70.0015 149.23C70.1028 148.847 70.2486 148.479 70.4357 148.13C71.42 148.975 72.6484 149.483 73.9418 149.581Z" fill="#263238"/>
<path d="M72.0404 151.01C71.6283 151.163 71.179 151.184 70.7544 151.07C69.8312 150.807 69.8202 149.971 70.0015 149.229C70.9962 149.35 71.9689 150.043 72.0404 151.01Z" fill="#FF98B9"/>
<path opacity="0.2" d="M54.7571 139.684C55.8891 139.503 58.6039 135.672 59.7525 134.15C60.901 132.628 61.566 124.467 61.6704 122.609C59.655 123.749 58.0047 125.438 56.9113 127.478C55.6254 129.918 54.8835 134.716 54.7571 139.684Z" fill="#263238"/>
<path d="M75.7113 129.369C75.0402 130.105 74.1923 130.657 73.2478 130.974C72.3034 131.29 71.2938 131.36 70.3147 131.177C69.3156 130.993 68.3801 130.557 67.5972 129.909C66.8142 129.262 66.2098 128.425 65.8414 127.478C65.8414 127.418 65.7315 127.451 65.7535 127.506C66.0506 128.537 66.6238 129.468 67.4112 130.197C68.1986 130.926 69.1703 131.427 70.2213 131.644C71.2655 131.802 72.3329 131.682 73.316 131.296C74.299 130.91 75.1631 130.272 75.8212 129.446C75.8249 129.432 75.8243 129.417 75.8192 129.403C75.8142 129.389 75.8051 129.377 75.7931 129.369C75.7811 129.361 75.7668 129.356 75.7522 129.356C75.7376 129.356 75.7233 129.36 75.7113 129.369Z" fill="#263238"/>
<path d="M70.128 114.74C66.7372 114.707 63.5719 116.482 62.2584 118.746C61.5289 120.036 61.2578 121.536 61.4891 123C61.4891 123.06 61.6155 123.049 61.61 123C61.5815 121.709 61.9006 120.435 62.5339 119.311C63.1672 118.186 64.0914 117.253 65.2095 116.608C66.4338 115.858 67.8154 115.402 69.2458 115.276C70.6762 115.15 72.1162 115.358 73.4527 115.883C74.7554 116.365 75.8429 117.297 76.5192 118.51C76.5851 118.636 76.8379 118.565 76.7885 118.438C75.9312 116.284 73.1889 114.767 70.128 114.74Z" fill="#263238"/>
<path d="M89.5545 122.703C89.0518 121.014 87.9699 119.557 86.499 118.587C84.4602 117.235 82.1026 117.35 79.7725 117.515C79.7594 117.515 79.7468 117.52 79.7375 117.53C79.7283 117.539 79.7231 117.551 79.7231 117.565C79.7231 117.578 79.7283 117.59 79.7375 117.6C79.7468 117.609 79.7594 117.614 79.7725 117.614C81.7619 117.482 83.7897 117.46 85.5812 118.455C87.0724 119.262 88.2377 120.561 88.8785 122.131C89.4885 123.742 89.4963 125.518 88.9005 127.134C88.3048 128.749 87.1455 130.095 85.6362 130.924C84.7558 131.379 83.7919 131.649 82.8035 131.718C81.815 131.787 80.8229 131.653 79.8879 131.325C79.811 131.298 79.756 131.402 79.8275 131.435C81.0904 131.933 82.4669 132.069 83.803 131.829C85.1391 131.589 86.3821 130.982 87.3927 130.076C88.4034 129.169 89.1419 128 89.5256 126.698C89.9093 125.396 89.9231 124.012 89.5654 122.703H89.5545Z" fill="#263238"/>
<path d="M55.6914 130.82C55.6914 130.82 52.6908 124.648 55.5045 121.241C57.0982 119.312 62.143 119.752 62.143 119.752C62.143 119.752 63.8741 116.911 68.0946 116.103C72.3152 115.295 77.2941 117.938 77.2941 117.938C77.2941 117.938 81.3937 115.79 85.0757 118.076C90.2139 121.263 89.2687 129.226 83.8941 131.6C80.1242 133.249 75.2113 129.809 75.2113 129.809C74.7222 129.858 69.6554 132.661 66.0723 128.105C66.0723 128.105 62.9289 130.699 60.2636 128.704C59.8102 129.483 59.1284 130.103 58.3106 130.482C57.4928 130.86 56.5784 130.978 55.6914 130.82Z" fill="#263238"/>
<path d="M57.8511 141.772C57.8511 141.772 54.999 135.727 52.3117 136.628C49.6244 137.53 51.1137 145.894 53.8064 147.465C54.1387 147.691 54.5131 147.847 54.9071 147.924C55.3012 148.001 55.7067 147.998 56.0994 147.914C56.4921 147.83 56.8638 147.668 57.1922 147.437C57.5206 147.206 57.799 146.911 58.0105 146.57L57.8511 141.772Z" fill="#AD6359"/>
<path d="M52.7952 139.008C52.7512 139.008 52.7292 139.063 52.7952 139.085C54.6746 140.25 55.4165 142.311 55.8232 144.383C55.3561 143.531 54.6032 142.981 53.4821 143.52C53.4705 143.527 53.4616 143.538 53.4567 143.551C53.4518 143.564 53.4511 143.579 53.4548 143.592C53.4585 143.606 53.4662 143.617 53.4771 143.626C53.4879 143.635 53.5012 143.64 53.5151 143.641C53.8903 143.59 54.2722 143.656 54.6085 143.83C54.9449 144.004 55.2193 144.278 55.3945 144.613C55.6794 145.178 55.9041 145.771 56.065 146.383C56.1309 146.581 56.4716 146.537 56.4387 146.317C56.4412 146.301 56.4412 146.284 56.4387 146.267C56.9003 143.701 55.5209 139.75 52.7952 139.008Z" fill="#263238"/>
<path d="M64.0664 153.945L58.6534 151.609L54.301 146.19L55.1363 145.515L59.3238 150.73L64.4951 152.961L64.0664 153.945Z" fill="#C7C7C7"/>
<path d="M63.4894 153.082C64.0389 151.505 68.4353 152.087 67.6385 154.472C66.8416 156.857 62.9563 154.648 63.4894 153.082Z" fill="#37474F"/>
<path d="M52.2292 136.463C52.2292 136.463 51.6412 127.599 54.235 122.725C57.1257 117.279 69.1058 112.097 77.316 117.949C77.316 117.949 63.9785 115.564 57.7631 123.115C55.1473 126.291 55.2132 136.711 55.2132 136.711L52.2292 136.463Z" fill="#C7C7C7"/>
<path d="M53.4387 149.195C57.4023 149.155 60.579 145.462 60.5341 140.946C60.4892 136.43 57.2396 132.801 53.276 132.841C49.3124 132.88 46.1357 136.573 46.1806 141.089C46.2256 145.605 49.4751 149.234 53.4387 149.195Z" fill="#C7C7C7"/>
<path d="M58.4391 140.712C58.4775 144.773 55.6254 148.092 52.0643 148.125C48.5032 148.158 45.5797 144.899 45.5412 140.838C45.5027 136.777 48.3549 133.458 51.9159 133.425C55.477 133.392 58.4006 136.65 58.4391 140.712Z" fill="#455A64"/>
<path d="M70.3477 163.155L66.4734 172.937L54.2844 160.638L50.8662 164.617C50.8662 164.617 62.8189 184.186 62.8903 183.301L66.8745 174.866L72.7107 180.697L72.1612 166.002L70.3477 163.155Z" fill="#EBEBEB"/>
<path d="M72.8537 173.415C72.6833 170.992 72.5844 168.546 72.3041 166.134C72.3041 166.051 72.1612 166.013 72.1392 166.134C71.6666 168.48 72.3646 177.74 72.3646 179.966H72.3371C72.0953 179.713 66.9295 174.838 66.8801 174.915C66.0173 176.256 63.0882 182.395 62.8904 182.955C60.9999 179.845 52.9985 167.595 50.7454 164.655C50.7344 164.636 50.7164 164.622 50.6953 164.617C50.6742 164.611 50.6517 164.614 50.6327 164.625C50.6138 164.636 50.5999 164.654 50.5943 164.675C50.5886 164.696 50.5916 164.719 50.6025 164.738C52.2511 168.035 62.6376 184.197 62.7805 184.153C64.3224 181.255 65.7145 178.28 66.9515 175.24C67.8253 176.3 73.035 181.807 73.0515 181.444C73.1274 178.766 73.0614 176.086 72.8537 173.415Z" fill="#263238"/>
<path d="M203.498 137.436H186.5C184.852 137.435 183.272 136.779 182.107 135.614C180.941 134.449 180.286 132.869 180.285 131.221C180.285 129.572 180.94 127.992 182.105 126.826C183.271 125.66 184.852 125.005 186.5 125.005H203.498C205.146 125.005 206.727 125.66 207.892 126.826C209.058 127.992 209.713 129.572 209.713 131.221C209.713 132.037 209.552 132.845 209.24 133.599C208.927 134.353 208.47 135.039 207.892 135.616C207.315 136.193 206.63 136.651 205.876 136.963C205.122 137.275 204.314 137.436 203.498 137.436Z" fill="#455A64"/>
<path d="M190.215 131.111C190.227 130.914 190.291 130.725 190.402 130.561L190.556 130.336L190.88 130.012L191.259 129.737C191.781 129.405 192.364 129.179 192.974 129.072C194.38 128.792 195.827 128.792 197.233 129.072C197.835 129.175 198.41 129.397 198.925 129.726C199.057 129.814 199.189 129.913 199.315 130.006L199.634 130.325C199.718 130.446 199.795 130.57 199.865 130.699C199.919 130.831 199.963 130.967 199.997 131.105H197.211C197.189 131.108 197.167 131.104 197.148 131.093C197.129 131.082 197.115 131.065 197.106 131.045C197.03 130.897 196.916 130.772 196.776 130.683C196.637 130.593 196.475 130.542 196.309 130.534C195.499 130.482 194.686 130.482 193.875 130.534C193.71 130.541 193.55 130.591 193.411 130.68C193.272 130.769 193.159 130.893 193.084 131.04C193.084 131.078 193.045 131.105 192.99 131.105H190.215V131.111Z" fill="white"/>
<path d="M190.215 132.666V131.649H192.963C192.963 131.71 192.963 131.776 192.963 131.847V132.666C192.97 132.714 192.966 132.763 192.951 132.809C192.936 132.855 192.911 132.897 192.876 132.931C192.842 132.966 192.8 132.991 192.754 133.006C192.708 133.021 192.659 133.025 192.611 133.018H190.561C190.513 133.026 190.465 133.022 190.419 133.007C190.373 132.992 190.331 132.966 190.297 132.932C190.263 132.897 190.238 132.855 190.224 132.809C190.209 132.763 190.206 132.714 190.215 132.666Z" fill="white"/>
<path d="M197.233 132.699C197.233 132.353 197.233 132.007 197.233 131.666H199.953V131.726C199.953 132.045 199.953 132.369 199.953 132.688C199.958 132.734 199.953 132.781 199.938 132.824C199.923 132.868 199.898 132.908 199.865 132.941C199.832 132.973 199.792 132.998 199.749 133.014C199.705 133.029 199.658 133.034 199.612 133.029H197.54C197.498 133.031 197.455 133.023 197.415 133.007C197.376 132.991 197.34 132.966 197.311 132.935C197.281 132.904 197.259 132.866 197.246 132.826C197.232 132.785 197.228 132.742 197.233 132.699Z" fill="white"/>
<path d="M133.76 242.026H129.99V244.488H133.76V242.026Z" fill="#455A64"/>
<path d="M138.645 241.861H134.875V244.323H138.645V241.861Z" fill="#455A64"/>
<path d="M143.536 241.696H139.766V244.158H143.536V241.696Z" fill="#455A64"/>
<path d="M148.427 241.537H144.657V243.999H148.427V241.537Z" fill="#455A64"/>
<path d="M153.318 241.372H149.548V243.834H153.318V241.372Z" fill="#455A64"/>
<path d="M158.209 241.213H154.439V243.675H158.209V241.213Z" fill="#455A64"/>
<path d="M163.1 241.048H159.33V243.51H163.1V241.048Z" fill="#455A64"/>
<path d="M167.991 240.883H164.221V243.345H167.991V240.883Z" fill="#455A64"/>
<path d="M172.877 240.724H169.107V243.186H172.877V240.724Z" fill="#455A64"/>
<path d="M173.805 245.9H129.061V242.905L173.805 241.658V245.9Z" fill="#37474F"/>
<path d="M217.472 234.091H143.613L155.357 179.103H229.216L217.472 234.091Z" fill="#455A64"/>
<path d="M220.204 234.091H146.345L158.088 179.103H231.948L220.204 234.091Z" fill="#37474F"/>
<path d="M193.828 206.499C195.832 204.647 196.174 201.758 194.592 200.046C193.01 198.334 190.103 198.448 188.099 200.299C186.095 202.151 185.753 205.04 187.335 206.752C188.917 208.464 191.824 208.351 193.828 206.499Z" fill="#263238"/>
<path d="M199.315 248.45H162.99V245.626L199.315 244.455V248.45Z" fill="#455A64"/>
<path d="M209.191 248.445H189.687L177.938 217.632H197.441L209.191 248.445Z" fill="#455A64"/>
<path d="M212.4 248.445H192.897L181.153 217.632H200.656L212.4 248.445Z" fill="#263238"/>
<path d="M127.682 249.198H90.2303C87.0374 249.198 91.6591 240.097 103.326 236.608C114.993 233.118 131.364 245.785 127.682 249.198Z" fill="#37474F"/>
<path d="M112.987 249.198C113.017 248.161 113.189 247.133 113.498 246.142C113.8 245.144 114.223 244.186 114.757 243.29C115.294 242.39 115.965 241.577 116.746 240.878C117.519 240.176 118.41 239.618 119.378 239.229C118.977 239.559 118.521 239.778 118.153 240.147L117.603 240.636L117.054 241.185C116.359 241.91 115.751 242.712 115.24 243.576C114.722 244.44 114.277 245.346 113.91 246.285C113.537 247.234 113.229 248.207 112.987 249.198Z" fill="#263238"/>
<path d="M117.422 240.537C119.646 241.273 121.751 242.33 123.67 243.675C124.64 244.345 125.518 245.139 126.281 246.038C126.655 246.497 126.978 246.997 127.242 247.527C127.503 248.057 127.653 248.635 127.682 249.225C127.551 248.666 127.322 248.133 127.006 247.653C126.707 247.172 126.357 246.724 125.962 246.318C125.161 245.507 124.287 244.771 123.352 244.12C122.423 243.449 121.439 242.85 120.455 242.257C119.961 241.96 119.455 241.674 118.95 241.4C118.444 241.125 117.933 240.817 117.422 240.537Z" fill="#263238"/>
<path d="M130.364 124.363C130.041 127.428 128.872 130.343 126.989 132.782C125.106 135.222 122.582 137.091 119.699 138.18C116.816 139.269 113.687 139.536 110.661 138.95C107.635 138.365 104.831 136.95 102.562 134.864L94.2257 136.106L98.3913 128.913C97.3504 126.378 96.9576 123.625 97.2482 120.9C97.4616 118.716 98.1051 116.595 99.1415 114.661C100.178 112.726 101.587 111.016 103.287 109.628C104.987 108.24 106.945 107.202 109.048 106.574C111.151 105.946 113.358 105.74 115.541 105.969C117.724 106.197 119.84 106.855 121.767 107.904C123.695 108.954 125.396 110.374 126.772 112.084C128.148 113.794 129.173 115.759 129.786 117.866C130.4 119.973 130.591 122.181 130.347 124.363H130.364Z" fill="white"/>
<path d="M130.364 124.363C130.044 127.43 128.882 130.35 127.006 132.798C126.54 133.407 126.037 133.987 125.5 134.535C124.944 135.063 124.357 135.559 123.742 136.018C122.517 136.95 121.167 137.703 119.73 138.255C118.294 138.817 116.787 139.176 115.251 139.321C114.482 139.393 113.709 139.408 112.938 139.365C112.165 139.347 111.395 139.268 110.635 139.129C107.563 138.565 104.709 137.157 102.392 135.062L102.59 135.123L94.2752 136.403L93.6761 136.513L93.9784 135.963L98.122 128.748V129.034C97.1497 126.67 96.7294 124.116 96.893 121.565C97.0566 119.014 97.7999 116.534 99.0663 114.314C100.333 112.094 102.089 110.192 104.201 108.753C106.313 107.314 108.726 106.375 111.255 106.009C113.785 105.643 116.365 105.858 118.798 106.639C121.232 107.42 123.455 108.746 125.3 110.516C127.144 112.285 128.56 114.452 129.44 116.852C130.321 119.251 130.642 121.82 130.38 124.363H130.364ZM130.364 124.363C130.625 121.858 130.309 119.327 129.439 116.964C128.57 114.6 127.171 112.468 125.35 110.729C123.528 108.99 121.333 107.692 118.932 106.934C116.531 106.175 113.988 105.977 111.498 106.354C109.029 106.722 106.677 107.651 104.623 109.069C102.591 110.498 100.893 112.35 99.6442 114.498C98.4155 116.657 97.6903 119.065 97.523 121.543C97.3694 124.026 97.7731 126.512 98.7045 128.819L98.765 128.968L98.6825 129.1L94.495 136.282L94.1982 135.843L102.529 134.678H102.645L102.727 134.754C104.951 136.836 107.71 138.258 110.696 138.86C111.44 139.009 112.195 139.101 112.954 139.134C113.712 139.187 114.472 139.187 115.229 139.134C116.75 139.018 118.246 138.689 119.675 138.156C121.111 137.637 122.463 136.909 123.687 135.996C124.3 135.541 124.887 135.051 125.445 134.529C125.984 133.987 126.489 133.413 126.957 132.809C128.853 130.364 130.033 127.439 130.364 124.363Z" fill="#263238"/>
<path d="M123.093 123.137C123.095 123.536 122.977 123.927 122.756 124.259C122.535 124.591 122.221 124.851 121.852 125.004C121.484 125.158 121.078 125.198 120.686 125.121C120.295 125.044 119.935 124.852 119.652 124.571C119.37 124.289 119.177 123.929 119.099 123.538C119.021 123.147 119.06 122.741 119.213 122.372C119.365 122.003 119.624 121.688 119.956 121.466C120.287 121.244 120.677 121.126 121.077 121.126C121.341 121.125 121.603 121.176 121.848 121.277C122.093 121.378 122.315 121.526 122.502 121.713C122.69 121.9 122.838 122.122 122.94 122.366C123.041 122.61 123.093 122.872 123.093 123.137Z" fill="#263238"/>
<path d="M115.872 123.137C115.873 123.536 115.756 123.927 115.535 124.26C115.314 124.592 114.999 124.851 114.63 125.005C114.261 125.158 113.855 125.198 113.463 125.121C113.072 125.043 112.712 124.851 112.429 124.569C112.147 124.286 111.955 123.926 111.877 123.535C111.8 123.143 111.84 122.737 111.993 122.368C112.147 121.999 112.406 121.684 112.738 121.463C113.071 121.242 113.462 121.125 113.861 121.126C114.394 121.126 114.906 121.338 115.283 121.715C115.66 122.092 115.872 122.604 115.872 123.137Z" fill="#263238"/>
<path d="M108.657 123.137C108.658 123.536 108.54 123.927 108.32 124.259C108.099 124.591 107.784 124.851 107.416 125.004C107.047 125.158 106.641 125.198 106.25 125.121C105.858 125.044 105.498 124.852 105.216 124.571C104.933 124.289 104.741 123.929 104.662 123.538C104.584 123.147 104.624 122.741 104.776 122.372C104.929 122.003 105.187 121.688 105.519 121.466C105.851 121.244 106.241 121.126 106.64 121.126C107.174 121.126 107.686 121.337 108.064 121.714C108.442 122.091 108.655 122.603 108.657 123.137Z" fill="#263238"/>
<path d="M137.415 38.0727C137.738 41.1376 138.906 44.0525 140.789 46.4925C142.671 48.9325 145.195 50.8018 148.077 51.8918C150.96 52.9819 154.089 53.25 157.115 52.6662C160.141 52.0824 162.946 50.6697 165.216 48.5855L173.536 49.8055L169.376 42.6119C170.33 40.2694 170.738 37.7403 170.568 35.2167C170.398 32.6932 169.655 30.2415 168.395 28.0482C167.135 25.8549 165.392 23.9776 163.298 22.5589C161.204 21.1403 158.815 20.2177 156.31 19.8612C153.806 19.5047 151.254 19.7237 148.847 20.5016C146.441 21.2795 144.243 22.5958 142.421 24.3504C140.6 26.1051 139.202 28.2519 138.334 30.6278C137.467 33.0037 137.152 35.546 137.415 38.0617V38.0727Z" fill="white"/>
<path d="M142.393 24.3285C144.206 22.5412 146.404 21.1944 148.82 20.3921C151.235 19.5898 153.803 19.3534 156.324 19.7013C158.864 20.0362 161.292 20.9479 163.425 22.3666C166.655 24.5228 169.04 27.7293 170.177 31.4429C171.314 35.1566 171.132 39.149 169.662 42.7438V42.458L173.795 49.6846L174.097 50.2341L173.498 50.1407L165.178 48.8658L165.376 48.8053C163.059 50.9001 160.204 52.3082 157.132 52.872C156.372 53.0113 155.602 53.0903 154.83 53.1083C154.06 53.1486 153.289 53.1339 152.522 53.0643C149.44 52.7704 146.499 51.6292 144.026 49.767C143.411 49.3073 142.824 48.8118 142.267 48.2832C141.732 47.7344 141.229 47.1545 140.761 46.5467C138.27 43.2919 137.059 39.2366 137.358 35.1488C137.657 31.0611 139.445 27.2249 142.382 24.3669L142.393 24.3285ZM140.822 46.4697C141.29 47.0717 141.795 47.6443 142.333 48.1843C142.888 48.7091 143.476 49.1992 144.092 49.6516C145.315 50.5695 146.669 51.2993 148.109 51.8168C149.536 52.3471 151.031 52.6763 152.549 52.795C153.308 52.8472 154.07 52.8472 154.83 52.795C155.587 52.7614 156.34 52.6696 157.083 52.5202C160.069 51.9182 162.828 50.4967 165.051 48.4151L165.134 48.3382H165.249L173.58 49.5032L173.284 49.9429L169.096 42.7603L169.014 42.6229L169.074 42.4745C170.007 40.1766 170.407 37.6972 170.244 35.2225C170.081 32.7479 169.36 30.3422 168.134 28.1863C166.887 26.0375 165.188 24.185 163.155 22.7568C161.103 21.3399 158.753 20.4112 156.286 20.042C153.025 19.5386 149.689 20.027 146.709 21.444C143.73 22.8609 141.245 25.1409 139.577 27.9879C137.91 30.8349 137.137 34.1175 137.359 37.4093C137.581 40.7011 138.787 43.8502 140.822 46.4478V46.4697Z" fill="#263238"/>
<path d="M155.445 38.3748V40.4521C155.45 40.659 155.412 40.8647 155.335 41.0568C155.258 41.2488 155.143 41.4233 154.997 41.5696C154.85 41.716 154.676 41.8312 154.484 41.9083C154.292 41.9854 154.086 42.0228 153.879 42.0183C153.464 42.0169 153.067 41.8514 152.773 41.558C152.48 41.2646 152.314 40.8671 152.313 40.4521V37.1548C152.313 37.1219 152.346 37.1219 152.346 37.0889C152.346 37.0559 152.313 37.0559 152.313 37.0285C152.324 36.6166 152.493 36.2246 152.784 35.9333C153.075 35.6419 153.467 35.4733 153.879 35.4622C154.372 35.5009 154.867 35.4373 155.334 35.2753C155.801 35.1133 156.229 34.8565 156.592 34.5211C156.955 34.1856 157.244 33.7787 157.442 33.3259C157.64 32.8732 157.743 32.3844 157.743 31.8902C157.743 31.396 157.64 30.9072 157.442 30.4544C157.244 30.0017 156.955 29.5948 156.592 29.2593C156.229 28.9238 155.801 28.667 155.334 28.5051C154.867 28.3431 154.372 28.2795 153.879 28.3181C153.258 28.3156 152.648 28.4769 152.11 28.7857C151.571 29.0944 151.124 29.5397 150.813 30.0767C150.706 30.2585 150.564 30.4172 150.395 30.5435C150.226 30.6699 150.033 30.7613 149.829 30.8124C149.624 30.8636 149.411 30.8735 149.203 30.8415C148.994 30.8095 148.794 30.7363 148.614 30.6262C148.437 30.5219 148.282 30.3837 148.159 30.2194C148.035 30.0551 147.945 29.868 147.894 29.6688C147.843 29.4697 147.832 29.2624 147.861 29.0589C147.891 28.8554 147.96 28.6597 148.065 28.483C148.621 27.518 149.408 26.7064 150.356 26.1214C151.304 25.5363 152.382 25.1962 153.494 25.1316C154.606 25.0669 155.716 25.2798 156.725 25.7511C157.734 26.2224 158.61 26.9373 159.275 27.8314C159.939 28.7255 160.37 29.7707 160.53 30.8729C160.689 31.9752 160.572 33.0998 160.189 34.1456C159.806 35.1914 159.169 36.1254 158.335 36.8637C157.501 37.602 156.497 38.1213 155.412 38.3748H155.445ZM155.445 45.3706V45.9201C155.451 46.1272 155.414 46.3333 155.337 46.5257C155.26 46.7181 155.145 46.8929 154.998 47.0394C154.852 47.1859 154.677 47.301 154.485 47.3779C154.292 47.4547 154.086 47.4916 153.879 47.4863C153.464 47.4863 153.065 47.3213 152.772 47.0276C152.478 46.7339 152.313 46.3355 152.313 45.9201V45.3706C152.319 44.957 152.485 44.5619 152.778 44.2694C153.07 43.9769 153.465 43.8101 153.879 43.8044C154.085 43.8022 154.29 43.8412 154.481 43.9191C154.672 43.997 154.846 44.1123 154.991 44.2582C155.137 44.4041 155.253 44.5776 155.331 44.7686C155.408 44.9596 155.447 45.1643 155.445 45.3706Z" fill="#172090"/>
</svg>
