<svg width="226" height="60" viewBox="0 0 226 60" fill="none" xmlns="http://www.w3.org/2000/svg">
<mask id="mask0_737_545" style="mask-type:alpha" maskUnits="userSpaceOnUse" x="0" y="9" width="42" height="42">
<path d="M20.5717 45.4286C23.995 45.4281 27.3209 44.2891 30.0258 42.1909C32.7307 40.0927 34.661 37.1546 35.5127 33.8389C36.3645 30.5233 36.0894 27.0186 34.7307 23.8765C33.372 20.7344 31.0069 18.1334 28.0078 16.4829C25.0086 14.8325 21.5457 14.2264 18.1643 14.76C14.7829 15.2937 11.675 16.9368 9.32982 19.4306C6.98468 21.9244 5.53554 25.1274 5.21052 28.5352C4.88551 31.943 5.70308 35.3621 7.53454 38.2543L5.14311 45.4286L12.3174 43.0371C14.7852 44.6034 17.6488 45.433 20.5717 45.4286Z" fill="#172090" stroke="#172090" stroke-width="0.822857" stroke-linecap="round" stroke-linejoin="round"/>
<path d="M34.4074 19.9308C34.6364 19.8348 34.8952 19.8348 35.1242 19.9308C35.381 20.0385 35.5221 20.2835 35.6164 20.4786C35.7199 20.6928 35.8282 20.9879 35.9592 21.3419C35.9876 21.4188 36.0033 21.4612 36.0168 21.4923C36.0227 21.5059 36.0267 21.5135 36.0285 21.5167C36.0343 21.5244 36.0413 21.5314 36.049 21.5372C36.0522 21.539 36.0596 21.5429 36.0734 21.549C36.1046 21.5625 36.1475 21.578 36.2248 21.6066C36.5787 21.7375 36.873 21.8468 37.0871 21.9503C37.2578 22.0328 37.4664 22.1506 37.5881 22.3507L37.6349 22.4415L37.6662 22.5294C37.7291 22.7353 37.7189 22.958 37.6349 23.1583C37.5272 23.4151 37.2822 23.5562 37.0871 23.6505C36.873 23.754 36.5786 23.8623 36.2248 23.9933C36.1475 24.0219 36.1046 24.0374 36.0734 24.0509C36.0596 24.0569 36.0522 24.0608 36.049 24.0626C36.0413 24.0684 36.0343 24.0754 36.0285 24.0831C36.0267 24.0863 36.0228 24.0938 36.0168 24.1075C36.0032 24.1387 35.9878 24.1817 35.9592 24.2589C35.8282 24.6128 35.7199 24.9071 35.6164 25.1212C35.5221 25.3164 35.381 25.5613 35.1242 25.6691C34.8952 25.7651 34.6364 25.7651 34.4074 25.6691C34.1509 25.5613 34.0105 25.3163 33.9162 25.1212C33.8127 24.9071 33.7034 24.6128 33.5724 24.2589C33.5438 24.1816 33.5284 24.1387 33.5148 24.1075C33.5088 24.0937 33.5049 24.0863 33.5031 24.0831C33.4973 24.0754 33.4903 24.0684 33.4826 24.0626C33.4794 24.0608 33.4718 24.0568 33.4582 24.0509C33.4271 24.0374 33.3847 24.0217 33.3078 23.9933C32.9538 23.8623 32.6587 23.754 32.4445 23.6505C32.2494 23.5562 32.0044 23.4151 31.8967 23.1583C31.8006 22.9293 31.8006 22.6705 31.8967 22.4415C32.0044 22.185 32.2495 22.0446 32.4445 21.9503C32.6587 21.8468 32.9538 21.7376 33.3078 21.6066C33.3847 21.5781 33.4271 21.5625 33.4582 21.549C33.4719 21.543 33.4794 21.539 33.4826 21.5372C33.4903 21.5314 33.4973 21.5244 33.5031 21.5167C33.5049 21.5135 33.5089 21.506 33.5148 21.4923C33.5283 21.4612 33.544 21.4188 33.5724 21.3419C33.7034 20.9879 33.8127 20.6928 33.9162 20.4786C34.0105 20.2836 34.1509 20.0385 34.4074 19.9308Z" fill="#172090" stroke="white" stroke-width="0.822857"/>
<path d="M27.8827 12.7979C28.4277 12.3949 29.1726 12.3949 29.7177 12.7979C29.958 12.9757 30.1119 13.2618 30.2382 13.542C30.3724 13.8399 30.521 14.2426 30.7069 14.7451C30.7911 14.9726 30.8103 15.0173 30.8319 15.0518C30.873 15.1173 30.9285 15.1727 30.994 15.2139C31.0284 15.2354 31.0732 15.2547 31.3007 15.3389C31.8032 15.5248 32.2058 15.6734 32.5038 15.8076C32.7841 15.9339 33.0711 16.0876 33.2489 16.3281C33.6518 16.8732 33.6518 17.618 33.2489 18.1631C33.0711 18.4036 32.7841 18.5573 32.5038 18.6836C32.2058 18.8179 31.8032 18.9664 31.3007 19.1523C31.0732 19.2365 31.0284 19.2558 30.994 19.2773C30.9285 19.3185 30.8731 19.3739 30.8319 19.4395C30.8103 19.4739 30.7911 19.5186 30.7069 19.7461C30.521 20.2486 30.3724 20.6513 30.2382 20.9492C30.1118 21.2295 29.9582 21.5165 29.7177 21.6943C29.1726 22.0972 28.4277 22.0972 27.8827 21.6943C27.6422 21.5165 27.4885 21.2295 27.3622 20.9492C27.2279 20.6513 27.0794 20.2486 26.8934 19.7461C26.8093 19.5186 26.79 19.4739 26.7684 19.4395C26.7273 19.3739 26.6719 19.3185 26.6063 19.2773C26.5719 19.2558 26.5271 19.2365 26.2997 19.1523C25.7972 18.9664 25.3945 18.8179 25.0966 18.6836C24.8164 18.5573 24.5303 18.4034 24.3524 18.1631C23.9495 17.618 23.9495 16.8732 24.3524 16.3281C24.5303 16.0878 24.8164 15.9339 25.0966 15.8076C25.3945 15.6734 25.7972 15.5248 26.2997 15.3389C26.5271 15.2547 26.5719 15.2354 26.6063 15.2139C26.6719 15.1727 26.7273 15.1173 26.7684 15.0518C26.79 15.0173 26.8093 14.9726 26.8934 14.7451C27.0794 14.2426 27.2279 13.8399 27.3622 13.542C27.4884 13.2619 27.6424 12.9757 27.8827 12.7979Z" fill="#172090" stroke="white" stroke-width="1.02857"/>
</mask>
<g mask="url(#mask0_737_545)">
<rect x="0.00012207" y="9.42859" width="41.1429" height="41.1429" fill="#FEFEFE"/>
</g>
<path d="M25.0918 37.5001C24.4382 37.5001 23.5202 37.2637 22.1454 36.4956C20.4736 35.5581 19.1805 34.6926 17.5178 33.0342C15.9147 31.4321 15.1346 30.3948 14.0427 28.408C12.8092 26.1647 13.0195 24.9888 13.2545 24.4862C13.5344 23.8855 13.9476 23.5263 14.4817 23.1697C14.785 22.971 15.106 22.8006 15.4406 22.6608C15.4741 22.6464 15.5052 22.6326 15.533 22.6203C15.6987 22.5456 15.9498 22.4328 16.2679 22.5533C16.4802 22.633 16.6697 22.796 16.9664 23.089C17.5747 23.689 18.4061 25.0253 18.7128 25.6815C18.9187 26.1238 19.055 26.4158 19.0553 26.7432C19.0553 27.1266 18.8625 27.4223 18.6284 27.7413C18.5846 27.8013 18.541 27.8585 18.4988 27.9141C18.244 28.2489 18.1881 28.3457 18.225 28.5185C18.2996 28.8657 18.8564 29.8993 19.7715 30.8123C20.6866 31.7254 21.6904 32.247 22.0389 32.3214C22.219 32.3599 22.3178 32.3016 22.6634 32.0378C22.7129 31.9999 22.7638 31.9608 22.817 31.9216C23.174 31.6561 23.4559 31.4682 23.8302 31.4682H23.8322C24.158 31.4682 24.4369 31.6095 24.899 31.8426C25.5016 32.1466 26.8781 32.9672 27.4818 33.5763C27.7754 33.8723 27.9391 34.0611 28.0192 34.273C28.1397 34.5921 28.0262 34.8422 27.9522 35.0097C27.9398 35.0374 27.9261 35.0679 27.9117 35.1017C27.7707 35.4357 27.5994 35.7561 27.3997 36.0586C27.0438 36.591 26.6832 37.0032 26.0812 37.2834C25.7721 37.4297 25.4338 37.5037 25.0918 37.5001Z" fill="#172090"/>
<path d="M27.8827 12.7979C28.4277 12.3949 29.1726 12.3949 29.7177 12.7979C29.958 12.9757 30.1119 13.2618 30.2382 13.542C30.3724 13.8399 30.521 14.2426 30.7069 14.7451C30.7911 14.9726 30.8103 15.0173 30.8319 15.0518C30.873 15.1173 30.9285 15.1727 30.994 15.2139C31.0284 15.2354 31.0732 15.2547 31.3007 15.3389C31.8032 15.5248 32.2058 15.6734 32.5038 15.8076C32.7841 15.9339 33.0711 16.0876 33.2489 16.3281C33.6518 16.8732 33.6518 17.618 33.2489 18.1631C33.0711 18.4036 32.7841 18.5573 32.5038 18.6836C32.2058 18.8179 31.8032 18.9664 31.3007 19.1523C31.0732 19.2365 31.0284 19.2558 30.994 19.2773C30.9285 19.3185 30.8731 19.3739 30.8319 19.4395C30.8103 19.4739 30.7911 19.5186 30.7069 19.7461C30.521 20.2486 30.3724 20.6513 30.2382 20.9492C30.1118 21.2295 29.9582 21.5165 29.7177 21.6943C29.1726 22.0972 28.4277 22.0972 27.8827 21.6943C27.6422 21.5165 27.4885 21.2295 27.3622 20.9492C27.2279 20.6513 27.0794 20.2486 26.8934 19.7461C26.8093 19.5186 26.79 19.4739 26.7684 19.4395C26.7273 19.3739 26.6719 19.3185 26.6063 19.2773C26.5719 19.2558 26.5271 19.2365 26.2997 19.1523C25.7972 18.9664 25.3945 18.8179 25.0966 18.6836C24.8164 18.5573 24.5303 18.4034 24.3524 18.1631C23.9495 17.618 23.9495 16.8732 24.3524 16.3281C24.5303 16.0878 24.8164 15.9339 25.0966 15.8076C25.3945 15.6734 25.7972 15.5248 26.2997 15.3389C26.5271 15.2547 26.5719 15.2354 26.6063 15.2139C26.6719 15.1727 26.7273 15.1173 26.7684 15.0518C26.79 15.0173 26.8093 14.9726 26.8934 14.7451C27.0794 14.2426 27.2279 13.8399 27.3622 13.542C27.4884 13.2619 27.6424 12.9757 27.8827 12.7979Z" stroke="#172090" stroke-width="1.02857"/>
<path d="M34.4074 19.9308C34.6364 19.8348 34.8952 19.8348 35.1242 19.9308C35.381 20.0385 35.5221 20.2835 35.6164 20.4786C35.7199 20.6928 35.8282 20.9879 35.9592 21.3419C35.9876 21.4188 36.0033 21.4612 36.0168 21.4923C36.0227 21.5059 36.0267 21.5135 36.0285 21.5167C36.0343 21.5244 36.0413 21.5314 36.049 21.5372C36.0522 21.539 36.0596 21.5429 36.0734 21.549C36.1046 21.5625 36.1475 21.578 36.2248 21.6066C36.5787 21.7375 36.873 21.8468 37.0871 21.9503C37.2578 22.0328 37.4664 22.1506 37.5881 22.3507L37.6349 22.4415L37.6662 22.5294C37.7291 22.7353 37.7189 22.958 37.6349 23.1583C37.5272 23.4151 37.2822 23.5562 37.0871 23.6505C36.873 23.754 36.5786 23.8623 36.2248 23.9933C36.1475 24.0219 36.1046 24.0374 36.0734 24.0509C36.0596 24.0569 36.0522 24.0608 36.049 24.0626C36.0413 24.0684 36.0343 24.0754 36.0285 24.0831C36.0267 24.0863 36.0228 24.0938 36.0168 24.1075C36.0032 24.1387 35.9878 24.1817 35.9592 24.2589C35.8282 24.6128 35.7199 24.9071 35.6164 25.1212C35.5221 25.3164 35.381 25.5613 35.1242 25.6691C34.8952 25.7651 34.6364 25.7651 34.4074 25.6691C34.1509 25.5613 34.0105 25.3163 33.9162 25.1212C33.8127 24.9071 33.7034 24.6128 33.5724 24.2589C33.5438 24.1816 33.5284 24.1387 33.5148 24.1075C33.5088 24.0937 33.5049 24.0863 33.5031 24.0831C33.4973 24.0754 33.4903 24.0684 33.4826 24.0626C33.4794 24.0608 33.4718 24.0568 33.4582 24.0509C33.4271 24.0374 33.3847 24.0217 33.3078 23.9933C32.9538 23.8623 32.6587 23.754 32.4445 23.6505C32.2494 23.5562 32.0044 23.4151 31.8967 23.1583C31.8006 22.9293 31.8006 22.6705 31.8967 22.4415C32.0044 22.185 32.2495 22.0446 32.4445 21.9503C32.6587 21.8468 32.9538 21.7376 33.3078 21.6066C33.3847 21.5781 33.4271 21.5625 33.4582 21.549C33.4719 21.543 33.4794 21.539 33.4826 21.5372C33.4903 21.5314 33.4973 21.5244 33.5031 21.5167C33.5049 21.5135 33.5089 21.506 33.5148 21.4923C33.5283 21.4612 33.544 21.4188 33.5724 21.3419C33.7034 20.9879 33.8127 20.6928 33.9162 20.4786C34.0105 20.2836 34.1509 20.0385 34.4074 19.9308Z" stroke="#172090" stroke-width="0.822857"/>
<path d="M60.2496 44.4827C58.6405 44.4827 57.0606 44.3511 55.51 44.0878C53.9593 43.8245 52.5257 43.4441 51.2092 42.9467C49.8926 42.4494 48.7516 41.8642 47.7861 41.1913L50.0242 34.9157C50.9312 35.5008 51.9406 36.0128 53.0524 36.4517C54.1641 36.8905 55.3344 37.2416 56.5632 37.5049C57.792 37.739 59.0208 37.856 60.2496 37.856C62.1806 37.856 63.5264 37.6073 64.2871 37.1099C65.077 36.5833 65.472 35.9397 65.472 35.179C65.472 34.7109 65.355 34.3159 65.1209 33.9941C64.8869 33.6722 64.4919 33.3943 63.936 33.1602C63.4094 32.8969 62.6926 32.6775 61.7856 32.5019L56.651 31.4048C53.8423 30.8197 51.7504 29.7957 50.3753 28.3328C49.0002 26.8699 48.3127 24.9829 48.3127 22.6715C48.3127 20.6235 48.854 18.8535 49.9365 17.3614C51.0482 15.84 52.5842 14.6697 54.5445 13.8505C56.534 13.0021 58.816 12.5778 61.3906 12.5778C62.8242 12.5778 64.1993 12.7095 65.5159 12.9728C66.8617 13.2361 68.1052 13.6311 69.2462 14.1577C70.3872 14.6551 71.3527 15.2402 72.1426 15.9131L69.9045 21.7938C68.7927 20.9746 67.4908 20.3456 65.9986 19.9067C64.5358 19.4386 62.9705 19.2046 61.3029 19.2046C60.2204 19.2046 59.2988 19.3362 58.5381 19.5995C57.7774 19.8336 57.1922 20.1847 56.7826 20.6528C56.4023 21.1209 56.2121 21.6622 56.2121 22.2766C56.2121 22.891 56.4608 23.4176 56.9582 23.8565C57.4848 24.2661 58.4357 24.6171 59.8108 24.9097L64.9015 26.0069C67.7394 26.6213 69.8606 27.6306 71.2649 29.035C72.6693 30.4393 73.3714 32.2679 73.3714 34.5207C73.3714 36.5102 72.8302 38.2656 71.7477 39.787C70.6652 41.2791 69.1438 42.4347 67.1836 43.2539C65.2233 44.0731 62.912 44.4827 60.2496 44.4827ZM84.6662 44.4827C82.9985 44.4827 81.521 44.1755 80.2337 43.5611C78.9757 42.9467 77.9809 42.1129 77.2495 41.0597C76.5473 39.9771 76.1962 38.7483 76.1962 37.3733C76.1962 35.7934 76.6058 34.5499 77.425 33.643C78.2442 32.736 79.5608 32.0923 81.3748 31.712C83.1887 31.3024 85.6024 31.0976 88.6159 31.0976H91.0296V34.784H88.6159C87.7674 34.784 87.0214 34.8279 86.3777 34.9157C85.7633 35.0034 85.2513 35.1497 84.8417 35.3545C84.4321 35.5301 84.1249 35.7641 83.9201 36.0567C83.7153 36.3493 83.6129 36.6857 83.6129 37.0661C83.6129 37.739 83.847 38.2949 84.3151 38.7337C84.8125 39.1726 85.5146 39.392 86.4216 39.392C87.153 39.392 87.7967 39.2311 88.3526 38.9093C88.9377 38.5874 89.4058 38.1486 89.7569 37.5927C90.108 37.0075 90.2836 36.3346 90.2836 35.5739V30.4832C90.2836 29.4299 90.0056 28.6839 89.4497 28.245C88.9231 27.8062 88.0015 27.5867 86.6849 27.5867C85.5732 27.5867 84.3444 27.7623 82.9985 28.1134C81.6527 28.4645 80.3361 29.0057 79.0488 29.7371L77.074 24.6025C77.8346 24.0759 78.7709 23.6078 79.8826 23.1982C81.0237 22.7886 82.2232 22.4814 83.4813 22.2766C84.7686 22.0425 85.9535 21.9255 87.036 21.9255C89.4351 21.9255 91.41 22.2766 92.9606 22.9787C94.5405 23.6517 95.7108 24.7049 96.4714 26.1385C97.2614 27.5429 97.6564 29.3568 97.6564 31.5803V44H90.3713V39.9186H90.6346C90.4884 40.8549 90.1519 41.6594 89.6253 42.3323C89.0986 43.0053 88.4111 43.5319 87.5626 43.9122C86.7142 44.2926 85.7487 44.4827 84.6662 44.4827ZM113.778 44.4827C110.501 44.4827 108.073 43.7221 106.493 42.2007C104.913 40.6793 104.123 38.3826 104.123 35.3106V28.1573H100.086V22.4082H104.123V16.1326H111.935V22.4082H118.079V28.1573H111.935V35.0473C111.935 36.1298 112.184 36.9344 112.681 37.461C113.208 37.9584 114.027 38.2071 115.139 38.2071C115.49 38.2071 115.87 38.1632 116.28 38.0754C116.719 37.9877 117.201 37.8853 117.728 37.7682L118.781 43.3856C118.108 43.7367 117.318 44 116.411 44.1755C115.534 44.3803 114.656 44.4827 113.778 44.4827ZM129.567 44.4827C127.695 44.4827 126.159 44.1463 124.959 43.4734C123.76 42.7712 122.853 41.7326 122.239 40.3575C121.653 38.9824 121.361 37.2416 121.361 35.1351V22.4082H129.172V35.3545C129.172 36.0567 129.26 36.6418 129.436 37.1099C129.641 37.5781 129.948 37.9291 130.357 38.1632C130.767 38.3973 131.279 38.5143 131.893 38.5143C132.596 38.5143 133.21 38.3534 133.737 38.0315C134.292 37.6805 134.717 37.1977 135.009 36.5833C135.331 35.9397 135.492 35.1936 135.492 34.3451V22.4082H143.304V44H135.668V40.0503H136.37C135.726 41.4839 134.819 42.581 133.649 43.3417C132.508 44.1024 131.147 44.4827 129.567 44.4827ZM156.627 44.4827C154.784 44.4827 153.145 44.0293 151.712 43.1223C150.307 42.2153 149.195 40.9134 148.376 39.2165C147.586 37.5195 147.191 35.5154 147.191 33.2041C147.191 30.8343 147.586 28.8155 148.376 27.1479C149.195 25.4802 150.307 24.1929 151.712 23.2859C153.145 22.379 154.784 21.9255 156.627 21.9255C158.236 21.9255 159.684 22.3058 160.971 23.0665C162.259 23.8272 163.122 24.8073 163.561 26.0069H163.078V13.0606H170.89V44H163.254V40.0942H163.648C163.239 41.4107 162.376 42.4786 161.059 43.2978C159.772 44.0878 158.294 44.4827 156.627 44.4827ZM159.128 38.7337C160.299 38.7337 161.264 38.2949 162.025 37.4171C162.785 36.5394 163.166 35.1351 163.166 33.2041C163.166 31.2439 162.785 29.8395 162.025 28.9911C161.264 28.1134 160.299 27.6745 159.128 27.6745C157.929 27.6745 156.949 28.1134 156.188 28.9911C155.427 29.8395 155.047 31.2439 155.047 33.2041C155.047 35.1351 155.427 36.5394 156.188 37.4171C156.949 38.2949 157.929 38.7337 159.128 38.7337ZM183.841 44.4827C181.969 44.4827 180.433 44.1463 179.233 43.4734C178.034 42.7712 177.127 41.7326 176.512 40.3575C175.927 38.9824 175.634 37.2416 175.634 35.1351V22.4082H183.446V35.3545C183.446 36.0567 183.534 36.6418 183.709 37.1099C183.914 37.5781 184.221 37.9291 184.631 38.1632C185.041 38.3973 185.553 38.5143 186.167 38.5143C186.869 38.5143 187.484 38.3534 188.01 38.0315C188.566 37.6805 188.99 37.1977 189.283 36.5833C189.605 35.9397 189.766 35.1936 189.766 34.3451V22.4082H197.577V44H189.941V40.0503H190.643C190 41.4839 189.093 42.581 187.922 43.3417C186.781 44.1024 185.421 44.4827 183.841 44.4827ZM209.979 44.4827C208.311 44.4827 206.834 44.1755 205.546 43.5611C204.288 42.9467 203.294 42.1129 202.562 41.0597C201.86 39.9771 201.509 38.7483 201.509 37.3733C201.509 35.7934 201.918 34.5499 202.738 33.643C203.557 32.736 204.873 32.0923 206.687 31.712C208.501 31.3024 210.915 31.0976 213.928 31.0976H216.342V34.784H213.928C213.08 34.784 212.334 34.8279 211.69 34.9157C211.076 35.0034 210.564 35.1497 210.154 35.3545C209.745 35.5301 209.438 35.7641 209.233 36.0567C209.028 36.3493 208.926 36.6857 208.926 37.0661C208.926 37.739 209.16 38.2949 209.628 38.7337C210.125 39.1726 210.827 39.392 211.734 39.392C212.466 39.392 213.109 39.2311 213.665 38.9093C214.25 38.5874 214.718 38.1486 215.07 37.5927C215.421 37.0075 215.596 36.3346 215.596 35.5739V30.4832C215.596 29.4299 215.318 28.6839 214.762 28.245C214.236 27.8062 213.314 27.5867 211.998 27.5867C210.886 27.5867 209.657 27.7623 208.311 28.1134C206.965 28.4645 205.649 29.0057 204.361 29.7371L202.387 24.6025C203.147 24.0759 204.083 23.6078 205.195 23.1982C206.336 22.7886 207.536 22.4814 208.794 22.2766C210.081 22.0425 211.266 21.9255 212.349 21.9255C214.748 21.9255 216.723 22.2766 218.273 22.9787C219.853 23.6517 221.023 24.7049 221.784 26.1385C222.574 27.5429 222.969 29.3568 222.969 31.5803V44H215.684V39.9186H215.947C215.801 40.8549 215.464 41.6594 214.938 42.3323C214.411 43.0053 213.724 43.5319 212.875 43.9122C212.027 44.2926 211.061 44.4827 209.979 44.4827Z" fill="#FEFEFE"/>
</svg>
